<?xml version="1.0" standalone="no"?>
<!DOCTYPE svg PUBLIC "-//W3C//DTD SVG 20010904//EN"
 "http://www.w3.org/TR/2001/REC-SVG-20010904/DTD/svg10.dtd">
<svg version="1.0" xmlns="http://www.w3.org/2000/svg"
 width="700.000000pt" height="700.000000pt" viewBox="0 0 700.000000 700.000000"
 preserveAspectRatio="xMidYMid meet">
<metadata>
Created by potrace 1.14, written by Peter Selinger 2001-2017
</metadata>
<g transform="translate(0.000000,700.000000) scale(0.100000,-0.100000)"
fill="#000000" stroke="none">
<path d="M2857 5894 c-1 -1 -31 -5 -67 -8 -384 -40 -745 -250 -971 -565 -123
-173 -198 -362 -226 -574 -8 -60 -7 -258 1 -302 3 -16 10 -55 16 -87 10 -56
44 -160 74 -229 l15 -36 -57 -13 c-226 -50 -464 -177 -613 -328 -160 -163
-251 -344 -305 -606 -23 -117 -23 -402 1 -531 3 -16 8 -43 11 -60 3 -16 17
-68 30 -115 98 -331 288 -609 569 -831 124 -98 112 -90 160 -119 22 -13 42
-27 45 -30 3 -4 10 -9 15 -11 6 -2 48 -25 95 -51 47 -26 119 -61 160 -78 41
-17 89 -37 105 -44 53 -24 260 -87 325 -100 14 -3 57 -12 95 -20 239 -51 645
-66 890 -31 87 12 102 14 120 18 11 3 40 8 65 12 25 4 97 20 160 35 944 236
1598 920 1603 1675 3 356 -99 617 -322 827 l-88 83 126 1 c380 2 614 39 841
131 155 64 309 187 397 318 71 107 133 254 149 355 3 19 8 38 9 41 18 28 26
311 12 404 -57 369 -288 671 -608 795 -301 116 -644 94 -893 -57 -117 -71
-208 -181 -256 -307 -18 -49 -23 -168 -10 -232 36 -172 178 -295 347 -300 203
-7 348 142 330 340 -4 48 -52 166 -67 166 -3 0 -17 18 -29 41 -28 50 -22 79
22 112 45 34 97 49 184 52 270 9 505 -143 619 -400 90 -205 87 -484 -7 -654
-114 -206 -391 -321 -827 -346 -42 -2 -129 -7 -192 -10 -63 -3 -146 -7 -185
-10 -38 -2 -115 -7 -170 -9 -442 -23 -508 -28 -695 -57 -392 -60 -619 -156
-822 -347 -129 -122 -240 -309 -273 -461 -3 -11 -7 -31 -10 -43 -21 -88 -21
-239 -1 -338 22 -105 93 -243 163 -315 130 -133 295 -198 497 -196 94 1 98 1
181 22 322 80 501 392 356 620 -58 93 -155 143 -276 143 -66 1 -90 -4 -135
-25 -105 -50 -140 -107 -126 -207 4 -26 9 -64 12 -85 8 -54 -26 -120 -73 -142
-77 -37 -194 1 -267 87 -56 65 -79 136 -80 248 -1 109 12 167 61 262 89 172
289 308 524 357 30 6 65 14 79 17 54 13 356 12 435 -1 275 -46 467 -148 613
-326 31 -38 57 -73 58 -77 0 -4 17 -41 36 -82 38 -81 55 -139 65 -228 13 -113
4 -258 -23 -355 -8 -29 -16 -59 -18 -68 -2 -8 -16 -43 -30 -77 -146 -346 -485
-633 -919 -776 -273 -91 -496 -124 -797 -121 -187 3 -278 12 -460 45 -202 38
-403 105 -583 195 -466 234 -770 615 -835 1045 -10 63 -8 295 2 355 12 74 61
205 103 277 47 79 154 185 224 220 74 38 157 57 231 54 81 -3 142 -35 240
-127 120 -112 210 -158 308 -158 119 -1 222 89 237 204 20 169 -142 299 -417
332 -25 3 -52 7 -60 9 -8 1 -41 3 -72 3 l-57 1 -12 43 c-7 23 -14 47 -15 52
-46 167 -41 407 12 570 16 50 82 192 106 230 150 230 367 394 603 456 104 27
258 33 350 13 226 -47 355 -203 349 -419 -3 -115 -23 -176 -96 -298 -23 -38
-37 -71 -32 -76 5 -4 30 -25 56 -45 l47 -38 33 23 c170 119 300 272 359 423
33 86 40 127 40 227 -1 311 -288 583 -670 635 -43 6 -219 12 -224 8z"/>
</g>
</svg>
