<svg
  data-logo="grapefruit"
  xmlns="http://www.w3.org/2000/svg"
  aria-hidden="true"
  focusable="false"
  width="150"
  height="150"
  viewBox="0 0 700 700"
>
  <path d="M318.9.4c-.2.2-3.5.7-7.4 1.1-16.9 1.6-40.2 7.8-55.7 14.7-4.6 2.1-6.8 4.5-3 3.4.9-.3 3.5-.8 5.7-1.1 2.3-.3 5-.7 6-.9 1.8-.3 5.1-.8 16.5-2.1 7.9-1 11.4-1.4 30-3 12.6-1.2 37.2-1.9 60.3-1.7 14.1 0 25.7-.3 25.7-.7 0-.9-22.5-6.6-30.5-7.7-2.7-.3-5.9-.9-7-1.1-2.4-.5-40.1-1.3-40.6-.9zM201.5 34.5c-27.5 8-52.7 21-75.7 39.1-8.4 6.6-27.2 25.1-34.4 34-7 8.5-16.9 23.3-16.1 24 .3.3 2.3-1.1 4.4-3.2 7.3-7.4 23.8-22 39.8-35.3 20.6-17.1 54.9-39.4 86-56.1 9.2-4.9 8.9-4.7 7.8-5.3-.4-.2-5.7 1-11.8 2.8zM518 57.7c0 .5 2.8 2.6 6.3 4.9 25.7 16.9 50.4 42.2 83.5 85.4 27.5 36.1 34.7 45 35 43.7.1-.7-1.3-5.1-3.3-9.8C616.9 129 570.4 77.6 530.2 61c-7.7-3.2-12.2-4.4-12.2-3.3zm-208.7 4.8c-1.7 1.2-2 2.2-1.6 5.2.3 2.1.5 5.4.6 7.3.2 3.3 0 3.5-2.9 3.4-1.8-.1-4.3-1.3-6.4-3.2-1.8-1.7-3.7-2.9-4.1-2.6-.4.2-.1 2.6.7 5.2.8 2.6 1.7 5.9 2.1 7.4.5 2.7.4 2.8-2.8 2.2-4.3-.8-5.5-2-7.2-6.8-1.8-5.2-3.5-6.3-7.3-4.5-2.7 1.4-2.9 1.8-2.8 7.4.1 8.8 1.3 19.8 3.5 30.4 3.3 16.2 2.4 20-4 16.6-4-2-4.1-.7-.4 7.2 4.6 10.1 8.4 20.6 12.8 35.8 3.1 10.5 3.2 10.9 4.8 19.5 1.5 7.6 1.5 9 .3 9.1-2.2.2-16.4-30.8-18-39.1-1.2-6.7-1.4-7.5-4.1-17-14.6-50.8-37.2-69.1-67.7-54.7-10.2 4.8-21.6 14.6-37.9 32.5-6.3 6.9-8.1 15.9-4.3 21.6.8 1.3 1.6 3.6 1.8 5.2.9 7.5 9.4 19.2 16 21.9 2.4 1 3.5 2.5 4.9 6.4 1 2.8 5.1 9.5 9.1 14.9 6.3 8.2 10.9 13.6 26.1 29.8 8.9 9.5 8.9 9.6 1.5 3.7-10.3-8.3-17.5-15.6-30.3-30.8-26.7-31.7-38.5-41-51.7-40.9-8.8.1-17.2 5.4-25 15.9-2.1 2.7-5.1 6.4-6.7 8-13.2 14.2-24.8 33.1-28.8 46.9-2.3 7.9-1.7 19.3 1.5 25.8 5.7 12 21.5 22.1 42 26.8 9.1 2.1 8.4 2.5-4.3 2.7-6.7.2-16.9.5-22.6.9-9.6.5-10.5.4-12.3-1.6-2.1-2.3-4.6-2.1-10.3.6-3.5 1.6-6 5.1-7.6 10.6-.9 3.4-.5 3.5 2.4.5 3-3.2 5.6-4.1 6.4-2.1.4 1-1.2 3.3-4.6 6.8-2.8 2.8-5.1 6-5.1 7.1 0 1.3 1.5 2.8 4.5 4.4 4 2.1 6.5 5.4 5.2 6.8-1.1 1.1-4.4 1-6.9-.3-1.5-.8-3.1-1.4-3.7-1.4-.5 0-2.4 3.5-4.2 7.7-2.9 6.8-3.3 8.9-3.4 16.8 0 8.1.3 9.5 2.7 13.6 5.1 8.8 14.2 14.1 30.9 18.3 9.5 2.4 13.5 3 26.7 4.2 4 .4 7.1.8 7 1-.2.1-2.3.5-4.8.9-25.5 3.6-42.4 16.8-47 36.4-1.2 5.1-1 17.5.5 24.4 3.4 16.6 18.4 38.4 31 45 14.6 7.8 25.7 4.7 33.7-9.2 1.2-2.2 2.6-4.1 3.1-4.1 1.4 0 2.6 4.9 2.3 9.7-.2 2.6-.4 5.6-.5 6.5 0 1-1.5 3.3-3.1 5.2-7 7.9-9.6 20.5-6.5 31.1 2 6.9 6.4 16 9.5 19.5 1.2 1.4 3 3.4 3.9 4.5 6.1 7.5 19.5 16.2 29.2 18.9 15.6 4.5 27 1.7 39.4-9.5 7.4-6.7 12.5-9.8 12.5-7.6 0 .8-1.9 5.8-4.2 11.3-5.7 13.5-5.8 19.3-.5 28 3.9 6.6 12.8 16.3 18.9 20.7 11.8 8.6 28.9 14 44.8 14 24.8 0 43.7-10.8 52.8-30.1l3.8-8.1.1 7c.5 20.2 15.9 32.6 41.4 33.1 9 .2 18.4-.6 23.7-2.1 1.7-.5 3.2-.8 3.2-.6 0 1.1 21.4-7.1 28.6-10.9 25.2-13.4 37.8-31.2 35.2-49.9-.4-3.3-1.5-7.3-2.2-8.9-1.7-3.3-1.3-3.5 1.7-.7 3.8 3.6 11.4 6.9 17.9 7.8 12.3 1.7 26.8-2.7 41.1-12.3 24-16.2 38.9-40.5 38.2-62.1-.1-4 .3-7.8 1.1-9.3 1.6-3.1 1-7.9-1.3-10.5-1-1.1-4.3-3.8-7.3-6-5.6-4.1-10-8.4-10-9.8 0-.4.4-1.9 1-3.3.9-2.4 1.2-2.5 7.7-2.2 24.7 1.2 48.8-22.7 51-50.4 1-13-4.3-25.8-14-34.1-4.1-3.4-3.4-5.6 4.7-14.8 8-9 11.4-15.4 11.2-21.3l-.1-4.3-5-.5c-6.5-.7-6.8-3.2-.7-7.3 4.8-3.2 5.2-5.4 2.6-13.4-4.9-15.1-16.3-31.2-23.3-33-3.3-.8-7.4.8-7.7 3.1-.3 2.3-2.1 3.5-4.3 3.1-.9-.2-4.1-.4-7.1-.4l-5.6-.1 5.6-5.8c18.9-19.4 19.3-53 .8-71.5-4.3-4.3-15.4-10.7-18.5-10.7-.7 0-1.5-1-1.7-2.3-1-4.4-2.8-13.2-3.2-15.7-.3-1.4-2.3-6.2-4.4-10.7-11.7-24.1-36.3-31.7-61.5-19-5 2.5-11.5 6.7-13.5 8.7-4.3 4.4-4.8 3.8-1.2-1.5 6.8-10.1 9.4-17 9.8-25.7.4-8.7-.9-12.8-5.8-18.8-5.4-6.8-16.8-13.7-30.8-18.6l-6.5-2.3-1.3 3.1c-1.5 3.6-2.3 3-4.6-3.3-2.3-5.9-5.9-9.9-8.7-9.4-1.2.2-4.3 1.8-6.9 3.5-6.3 4-10.7 4.7-15.1 2.4-10.6-5.4-28.6-5-30.4.7-.8 2.4.6 4.2 5.9 8.1 2.1 1.5 3.7 2.8 3.5 2.9-.2 0-1.3.2-2.3.4-3 .6-3.4 2.2-2.1 8.7 1.2 5.5 1.1 6.2-.6 7.9-3 3-5.1 1.1-8.9-7.8-3.3-7.5-8.9-17.4-11.3-19.8-3.6-3.4-9.2-6.8-14.2-8.6-7.6-2.6-24.2-3.5-27.2-1.4zm14.1 219.8c5.4 11 8.3 14.1 13.1 14.1 4.4 0 7.9-3.2 13-12 4.3-7.3 5-8 6.9-6.5 1.3 1.1 1.9 3 3.2 11.4.5 3.8.5 3.8-2.7 3.5-2.8-.3-3.4.1-3.9 2.2-1.9 7.5 2.1 7.5 11.4.1 6.7-5.3 10.1-7.3 10.9-6.5.3.3.3 3.2 0 6.5-.5 5.3-.3 6.2 1.8 8.5 2.3 2.5 2.6 2.6 11.2 1.9l8.9-.7-1.2 2.3c-.7 1.3-2.5 4-4 5.9-3.6 4.6-2.5 7.1 4.7 10.6 2.9 1.5 5.3 3 5.3 3.5s-1.8 1.8-4 2.9c-2.2 1.1-4 2.4-4 2.9 0 .9 13.6 13.7 17.7 16.6 3.3 2.4.8 2.4-11.1 0-14.1-3-15.1-3-15.3-.8-.3 3.8-1.2 7.1-4.2 15.2-3.4 9.4-3.8 13.6-1.6 16.7 1.4 2 9.6 6.1 13.8 7 1.1.2 2.2.6 2.5.9.7.6-.2.7-10.3 1-4.4.1-9.7.3-11.7.4-2.3.1-4.7 1-6.3 2.4-4.4 3.8-3.4 10 3.4 21l2.1 3.4-5.4-2.7c-5.5-2.8-8.7-3-13.9-1.1-3.4 1.3-8.2 8.7-9.8 15.2-1.3 5.1-2.9 6.5-2.9 2.6 0-7.4-5.3-25.7-8.6-29.7-5.2-6.1-9.8-2.9-19.6 13.7-6.4 10.8-8.3 12.7-9.1 8.7-.3-1.6 1.4-5.9 4.9-13 6-11.7 6.7-16 3.2-17.3-1.3-.5-3.2-.7-4.3-.5-3.8.8-9.2.7-10.5-.1-.9-.5-1-1.9-.5-4.9 1.4-7.6 1-10.8-1.5-12.8-2.4-2-10.2-4.4-16.5-5.2-7.2-.9-19-1.9-21-1.8-1.9.1-1.9 0-.2-1.3 2.6-1.9 14.1-3.7 21.2-3.2 11.2.7 18.5-2 18.5-6.8 0-4.4-5.9-7.2-15.3-7.3-9.6 0-11.2-3-4.2-8 2.5-1.7 4.5-3.5 4.5-4 0-1.5-3.3-3.8-8.2-5.8-2.7-1-5.8-2.7-7-3.6-2.2-1.7-2-1.7 6.6-1.7 6.8 0 10.3-.5 14.8-2.2 14-5.2 13-12.9-3.8-29.7-6.5-6.3-8.4-8.7-6.2-7.5 1.8.9 5.4 1.8 8 1.8 2.5.1 7.8 1.2 11.7 2.5 6.2 2 7.6 2.1 11.7 1.1 5-1.3 6.8-.6 7.7 2.8.8 3-.6 4.1-5.9 4.7-10.5 1.1-11.7 2.3-6.3 6.3 7.1 5.3 15.9-3.5 15.4-15.4-.2-4.4-1.6-14.6-2.2-16.2-.3-.7-.3-1.3 0-1.3s2.6 4.2 5.1 9.3z"/>
  <path d="M32.6 198.2c-6.8 10.5-19.4 42.4-24 60.9C2.4 284.5.5 301.4.5 331.5c0 23.2.8 34.4 3.6 51.5.6 3.6 1.3 7.8 1.6 9.5 1.2 7.9 5.5 26.4 8.7 38 13.5 49.2 38.6 99.4 69 138.5 8.5 10.9 28.2 31.4 37.6 39.2 11.4 9.4 27.1 18.5 39.5 23 5.3 2 16 4.1 17.6 3.6.7-.2-1.8-2.6-5.7-5.3-6.3-4.5-23.3-17.5-26-20-.7-.5-4.2-3.7-8-7-48.8-43-86.7-100.6-107.8-163.6-4-12.1-10.2-34.4-11.2-40.9-.3-1.4-.7-3.9-1.1-5.5-.4-1.7-.8-3.7-.9-4.5-.2-.8-.5-2.9-.8-4.5-3.1-17.4-5-40.2-4.9-61.5 0-11.3 1-31.8 1.8-35.9.1-.9.6-4.3.9-7.6 2.4-20.5 7.8-44.3 15.6-67.4 2.7-8 4.7-14.7 4.5-14.9-.2-.2-1 .7-1.9 2zm617.4 6.9c0 .6 2.3 6.2 5.9 14.4 5.9 13.2 12 33 15.5 50.8 4.2 21 5.1 30.6 5.1 54.2 0 16.9-.7 31.2-1.9 37-.2 1.1-.7 4-1 6.5-1.9 13.8-7.8 37.4-14.1 56.5-8 24.2-19.8 49.7-33.2 72-7.7 12.8-21 32.1-26.5 38.7-1.3 1.4-3.9 4.5-5.8 6.9-13.5 16.5-30.2 32.7-54.5 52.8-3.6 3-18.9 13.7-26 18.3-32.7 21-69.6 36.9-107.8 46.3-31.1 7.6-51.1 10-85.2 10-26.5 0-43.7-1.3-60.8-4.6-2.9-.5-6.8-1.2-8.7-1.5-3-.5-26.2-6.1-32.7-8-3.5-1-2.7 1 1 2.4 5.1 2 29.6 10.2 31.5 10.5.9.2 3.7.9 6.2 1.6 2.5.7 5.2 1.5 6 1.6 24.9 5.2 32.1 6.3 52.5 8 6.5.5 35.8.6 41 .1 2.2-.3 7.8-.7 12.5-1.1 25.2-1.9 60.2-10.5 88.6-21.6 45.5-17.8 87.8-45.4 122.2-79.7 9.8-9.7 13.1-13.3 22.7-24.2 9.7-11.1 24-31.2 33.4-46.9 5.7-9.3 20.1-37.1 20.1-38.5 0-.4.9-2.5 1.9-4.9 5-11 15.2-41.8 16.7-50.2.2-1.7.7-3.7.9-4.5.2-.8.6-2.7.9-4.3.3-1.5.7-3.5 1-4.5.3-.9.8-3.4 1-5.4.3-2.1.8-5.3 1.1-7 .3-1.8.7-4.6 1-6.2 2.7-17.1 2.8-59.2.1-78.6-.2-1.4-.6-5-1-8s-2.1-11.4-3.7-18.5c-1.7-7.2-3.2-13.9-3.4-15-.3-1.1-2.1-7.2-4.1-13.5-2-6.3-3.7-12.1-3.9-13-1.1-5.5-2.2-8.5-6.2-16-4.1-7.9-8.2-14.3-8.3-12.9z"/>
</svg>
