<svg
  data-logo="teacup"
  xmlns="http://www.w3.org/2000/svg"
  aria-hidden="true"
  focusable="false"
  viewBox="0 0 1196 711"
  width="200"
  height="119"
>
  <path d="M272 349.8c2.6 1.5 5.5 3.1 8.5 4.6 7.9 6.6 16.8 11.1 26.6 13.1 4.2.9 8.5 1.3 12.8 1.3 10.9 0 21.8-2.8 31.5-8 1.7-.3 3.4-.6 5.2-.9 1.3-.2 2.1-1.4 2-2.7 4.2-1.6 7.8-3.6 10.4-6.3 3.7-3.7 5.3-8.3 4.9-13.6.9-3 1-6.1.4-9.3-.5-2.5-2.3-2.6-2.8-2.6-2.3.1-2.5 2.1-2.9 5.6-.1 1.3-.3 3-.5 4.1-6.8 9.3-16 16.4-26.6 20.7-15.4 1.7-33 .1-40.9-1.4-6.4-1.2-12-3-17-5.4-1.5-.9-3-1.8-4.4-2.8-.2-.1-.3-.3-.5-.4-7.3-7.6-13.4-17.5-17.8-29.1-4.2-15-4.6-33.3-2.3-51.2.4-.4.7-1.1.6-2.1l-.2-.4c0-.2-.1-.4-.1-.6.4-2.4.8-4.8 1.2-7.1 11.4 16.4 35.7 19.7 57.3 22.7l6.3.9c2.1.6 4.1 1.1 6.1 1.7 3.7 1 7.4 2 11.1 3.1 4.3 1.3 8.7 2.3 12.9 3.3 7.8 3.4 15.3 7.8 23.9 13.9.9.7 1.9 1.3 2.8 1.9 3.1 2.1 6.1 4.1 8.7 6.7.1.1.4.5.7.8 1 1.3 2.2 2.8 4 2.4 1.1-.2 1.8-1.1 2.1-2.2.5-2.8-.2-6.7-8-12.3 9.1 3.8 10.2 3.1 11.2 2.5.8-.5 1.3-1.5 1.2-2.4-.6-11.2-2.5-25.9-6.1-41.1.2-9-.5-18.6-2.1-28.2-1.1-6.9-4.3-13.1-8.9-18.5-4-7.2-11-13.1-20.5-17.4-.1 0-.1-.1-.2-.1-15.2-12.7-34-17-52.9-12-6.3 1.7-12.3 4.3-17.9 7.8-5.4 1.4-10.3 3.4-13.9 6-.3.2-.6.5-.9.7-3.5 2.2-6.6 4.7-9 7.5-3.7 4.4-7 9.3-10.1 14.7-1.5 1.9-2.8 4.4-3.8 7.3-1.9 3.9-3.6 8-5 12.3h-.6c-1.4 0-2.5 1.1-2.6 2.4 0 1.1.6 2 1.6 2.4-.6 1.9-1.1 3.7-1.6 5.7-5 8-8.6 23.1-8.7 25.3-.8 36.5 11.2 63.2 34.8 76.7zm107.9-65.7c-.4.8-.8 1.2-1.6 1.4-4.6 1.3-14.9-5.6-19.2-8.6-2-1.4-2.9-2-3.6-2.2l-2.5-1c-12.7-5-26.8-10.6-40.6-15.9 1.9.5 3.9 1 5.8 1.5 10.2 3.1 20.3 7.3 30 11.5 10.3 4.4 20.9 8.9 31.5 11.8.3.1.5.1.8.1-.2.6-.4 1-.6 1.4zm-130.4 9c-.1 2.5-.2 4.6 0 6.1.6 5.2 1.6 10.2 2.9 14.8l-.3-.9c-5.1-14.3-6.4-31.3-4.2-48.2-.5 9.6.1 19.2 1.6 28.2zm6.5-49.8c0 .1-.1.3-.1.4v-.4h.1zm.5-5c2-7.7 4.8-14.8 8.4-21.1.5-.5 1-1 1.5-1.4-1.5 2.7-2.8 5.6-3.8 8.5l-.5 1.3c-1.4 3.8-3.1 8.2-4.6 12.9-.4 0-.7-.1-1-.2zM366.7 204c8.2 10.3 14.5 24.9 19.1 40.2 0 .6.1 1.1.1 1.7-.6-1.7-1.3-3.4-1.9-5-5.8-15.6-10.9-29.5-20.1-38.4 1 .5 1.9 1 2.8 1.5zm-52.2-11.4c4.8-.4 9.8-.3 14.6 0-1.9.2-3.8.5-5.9.8-3.5.6-7.2 1.1-11 1.6-7.1 1-14.6 2.1-21.9 3.8 6.7-3.3 14.8-5.5 24.2-6.2zm-50.8 47.8c3.4-11.6 7.9-22 13.3-30 .6-.9 1.2-1.7 1.9-2.5 10.3-4.5 22.3-6.2 34.1-7.9 3.9-.5 7.5-1.1 11.1-1.7 36.7-6.2 44.1 13.9 55.3 44.3 1 2.6 1.9 5.3 3 8 .2.4.3.9.6 1.5 1.1 2.7 2 5.2 2.8 7.5-.7 4.2-3.6 15.5-5.5 18.1-9.9-2.8-19.7-7-30-11.4-9.9-4.2-20.1-8.5-30.5-11.7-7.7-2.3-15.7-3.5-23.5-4.7-3-.4-5.9-.9-8.8-1.4-9.1-3.2-17.2-6.1-23.8-8.1zm50.6 27.4c-2.8-.7-5.2-1.2-7.3-1.6-4.4-.9-7.9-1.6-12.9-3.4-1.3-.5-4.5-2.2-5.6-2.8-.1-.1-.3-.1-.4-.2-2-.9-3 0-3.5.9-.2.4-1.1 2.2 1.3 3.6 3.2 1.9 6.6 3.5 10 5-14.7-3.2-27.8-8.7-33.7-20.5-.1-.2-.3-.5-.5-.6.1-.6.3-1.2.5-1.9 7.7 3.7 15.8 5.6 23.9 7.1 16.5 6 38.3 14.4 65.1 25.1l2.4 1c.3.2 1.6 1 2.7 1.8l2.7 1.8-1.5-.3c-19-7.9-38.5-13.9-43.2-15zm78.3 16.4 1-1.5c.1-.2.2-.4.3-.5.6 4.8 1.1 9.2 1.4 13.3-2.6-.9-7.2-2.8-13.7-5.8-.1 0-.1 0-.1-.1 1.3-.8 2.3-1.9 3-3.4 1.5-3.3 2.8-7.2 3.9-11.5 0 2 .2 4 .6 6.2v.1c.1 1.9 1.2 2.5 1.9 2.7l1.7.5zm-50.9-97.8c-9.1-1.6-19.1-2-28.9-1.3 9.9-2.3 19.7-1.8 28.9 1.3zM183.8 427c-.5-1.3-2-1.9-3.3-1.4-17.5 7.2-34.1 11.7-52.5 15.6 7.1-2.2 14-4.7 20.7-7 2.8-1 5.6-2 8.3-2.9 3.5-1.2 7-2.6 10.4-4 2.7-1.1 5.4-2.2 8.1-3.1 1.2-.4 4-1.2 5.7-1.6 2.2-.6 4.2-1.1 3.6-3.5-.1-.6-.8-2.3-3.4-1.8-.3.1-.7.1-1 .2 1.7-.8 3.3-1.6 4.9-2.5 1.2-.7 1.6-2.2.9-3.4-.6-1.1-2-1.5-3.1-1.1.2-.4.3-1 .2-1.5-.3-1.4-1.6-2.2-2.9-2-9.7 1.9-19.3 4.4-28.7 7.1-1.1-5.1-2.3-10.1-3.6-15.1-1-13.5-4.6-27.6-8-40.6-1.8-7.2-3.6-13.9-4.8-20.2l-24.2-124.5c-.7-12.5-1.7-23.5-4.1-30.1 4.9-.5 9.8-1 14.8-1.7 6.8-.9 12.9-1.8 18.3-2.6 19.4-2.8 30.9-4.5 37.3-2.8 0 .1.1.3.1.4 1.4 3.7 1.8 5 2.1 5.5 1.7 3.6 3.4 7.3 4.9 10.9 1.2 8.1 3.1 18.4 6.5 31.1 1.4 5.4 3.2 10.8 4.9 16.1 2.5 7.8 5.2 15.9 6.7 23.6.2 1.2 1.3 2 2.5 2l3.3 17.7c.3 1.4 1.6 2.2 2.9 2 1.4-.3 2.2-1.6 2-2.9-.1-.5-.2-1-.3-1.4.2 0 .4-.1.6-.2.5.8 1.3 1.4 2.6 1.1.6-.1 2.3-.8 1.8-3.4-.1-.4-.2-.7-.5-1-.6-2-2-6.7-3.3-11.3 1.3-.3 2.2-1.6 1.9-2.9-.9-4.6-3-9.1-5.3-13.5-2-11.7-4.3-23.3-6.6-34.7-1.2-5.8-2.3-11.5-3.4-17.2-.4-1.8-.6-4.2-.9-6.7-.9-7.5-2-16.8-6.3-22.1-1.3-6.6-2.6-9.4-4.5-10.4-2.8-1.5-7.3-.7-13 1.2-.7-1.2-1.2-1.3-1.9-1.5-6.8-1.3-16.3 1.5-24.8 4-3.4 1-6.7 2-9.2 2.4-3.5.7-7.2 1.4-10.8 2.2-3.1.5-6.1 1-9 1.5l-18 3.5c-.6-.7-1.5-1-2.4-.8-.9.2-1.6.8-1.9 1.7l-2.4.5c-.6-.7-1.5-1-2.4-.8-.9.2-1.6.8-1.9 1.7l-9.2 1.8c-15.1 2.9-28 5.8-38.6 8.5-14.6 1.7-29.3 5.2-37.4 14.5-2.5 2-4.5 4.4-5.8 7.5-5.9 14.2 2.7 43.5 9.6 67 2.6 9 5.1 17.4 6.3 23.4.2 1.2 1.3 2 2.5 2h.5c1.4-.3 2.2-1.6 2-2.9-.3-1.3-.6-2.8-1-4.3.4.3.9.4 1.4.4h.5c1.4-.3 2.2-1.6 2-2.9-.9-4.8-3.3-12.7-6.1-21.9-.1-.3-.2-.6-.3-1 .7 1.5 1.4 2.9 2.1 4.4 2.5 5.1 5 10.1 7.1 15 .2 4.8-.3 9.1-1.9 12.8-.6 1.3 0 2.7 1.3 3.3.3.1.7.2 1 .2 1 0 1.9-.6 2.3-1.5.6-1.3 1-2.7 1.4-4.1.4 1 1.3 1.6 2.3 1.6.2 0 .5 0 .7-.1 1.3-.4 2.1-1.8 1.6-3.1-.9-2.8-1.9-5.6-3.1-8.4-1.2-6.5-2.4-13.1-3.5-19.6-2.6-15.4-5.3-31.4-9.4-46.6-.1-.5-.5-1.4-1.2-3.3-1-2.7-1.8-5-2.5-7.1 10.1-10 48.4-17.4 65.6-20.8 3-.6 5.6-1.1 7.8-1.5 2.2 3.7 4.2 7.8 6.1 12.3 1.5 8.7 2.9 17.4 4.3 25.9 3.9 23.6 7.9 48.1 13.3 71.9 1 4.4 2.1 8.7 3.2 13 2.2 17.2 4.6 34.7 7.6 52 1.3 7.5 2.7 15 4.1 22.3 1.1 5.7 2.2 11.7 3.3 17.5.1.7.3 1.5.4 2.4.6 5.1 1.3 11.1 1.7 14.6-1.8.6-3.7 1.2-5.5 1.7-16.8 5.3-34.2 10.8-51.9 14.2-1.4.3-2.2 1.6-2 2.9.2 1.2 1.3 2 2.5 2h.5c4.9-.9 9.7-2 14.5-3.2.3.1.6.2 1 .2h.5c7.1-1.4 14.6-2.5 22.6-3.7 2.3-.3 4.6-.7 6.9-1.1-.1 0-.2.1-.2.1-4.9 1.8-9.8 3.9-14.6 5.8l-2.3 1c-3.9 1.6-7.1 3-9.5 4-4.5.5-9 .7-13.2.5-1.4-.1-2.6 1-2.6 2.4-.1 1.2.7 2.2 1.8 2.5-1.6.9-3.3 2.3-3 4.1.2 1 1.1 2.1 2.7 2.1h.2c8.1-.5 16.5-2.4 24.6-4.2 3.5-.8 6.8-1.5 10.1-2.2 23.8-4.6 44-9.5 65.6-18.4 1.6-.9 2.2-2.4 1.7-3.7zm7.3-240.7c-.9-3-1.9-5.5-3.2-7.6-.1-1.4-.2-2.7-.3-3.9-.1-1.5-.2-2.9-.3-4.1.7.3 1.3.7 1.8 1.2.9 5.3 1.7 11.5 2 14.4zm-8.6-13c-.4-.2-.7-.4-1.1-.6 0 0-.1 0-.1-.1-.4-1.2-.8-2.3-1.2-3.2h2.1c.1 1.2.2 2.5.3 3.9zM14 200.7c.1-.1.3-.2.4-.3 3.6-1.6 7.8-2.7 12.1-3.5-4.2 1.4-8.5 3.2-12.2 5.6-.2-.7-.3-1.3-.3-1.8zm-7 7.4c.6-1.5 1.5-3 2.5-4.3.1.7.3 1.4.6 2.2-1.5 1.6-2.8 3.4-3.7 5.4 0-1.3.3-2.4.6-3.3zm91.6-22.4c.1 0 .3-.1.4-.1 0 .9.1 1.9.1 3.1-.1-1-.3-2-.5-3zm49.3 234.9c.2.8.3 1.5.5 2.3-.3.1-.6.1-.9.2.1-.7.1-1.4 0-2.4.1 0 .3-.1.4-.1zm31.9-8.2c-8 4-17 7-26.5 9.4-.2-.9-.3-1.7-.5-2.6 8.8-2.6 17.9-5 27-6.8zm-11.6-241.3c2.2-.5 4.5-.9 6.6-1.2.2.5.3.9.5 1.4-2-.3-4.4-.3-7.1-.2zm18.6-7.6c.3.4.6 1.1.9 1.9-.5-.2-.9-.3-1.4-.4-.3-.7-.6-1.2-.9-1.7.6 0 1.1.1 1.4.2zM9.9 225.7c1.5 6.6 4.3 14.2 7.3 22.4 2 5.5 4.2 11.3 5.9 17-6.2-12.6-12.1-25.7-13.2-39.4zm10 15.4c-3.4-9.4-6.2-18-6.2-24 .2.6.4 1.1.6 1.7.5 1.3 1 2.6 1 2.9 1.9 6.4 3.3 12.9 4.6 19.4zm117.2 163.3c-.2-1.9-.4-3.7-.6-5.2-.1-.5-.2-.9-.5-1.3-.8-4.4-1.7-8.8-2.5-13.1 2.4 8.4 6 21 7.9 29.5.1.9.1 1.9.2 3.1-.9.3-1.9.6-2.8.9-.4-3.9-1-9.5-1.7-13.9zm-7.2 21.7c3.8-1.2 7.7-2.4 11.6-3.6 0 .7 0 1.3.1 1.8-4.5.9-9.1 1.7-13.6 2.4.7-.2 1.3-.4 1.9-.6zm10.7 5.8c-4.2 1.5-8.4 2.9-12.7 4.3 4-1.5 8.3-3.1 12.7-4.3zM403 371.6c-3 .6-6.1 1.1-9.1 1.7-1.2.2-2.1 1.4-2 2.6-1.4.3-2.2 1.6-2 2.9.2 1.2 1.3 2 2.5 2h.7c1.5-.3 2.9-.6 4.3-.8-2.1 1.3-2.4 2.1-2.6 2.5-.4 1-.3 2.1.4 3 .6.7 1.2 1.4 4.6 1.4 3.4 0 9.7-.8 21.7-3.1 3.1-.6 5.2-1 6.7-1.2 2.9-.5 4.1-.7 5.6-1.4.2 0 .4 0 .5-.1 21-2.3 23.1-6.9 23.8-8.4.6-1.4.5-2.8-.3-3.9-.7-.9-1.8-1.6-3-2 .2-.2.3-.3.3-.4.4-.6.5-1.4.3-2.1 3.2-1 3.3-1.5 3.6-2.4.3-.8.1-1.7-.4-2.4-.8-1.1-2.4-1.3-3.5-.5-2.3.9-14 3.8-18.5 5-2.1.5-3.6.9-4.1 1-1.4.4-2.8.8-4.2 1.1 7.1-11.1 5.7-23.1 4.4-34.7-.6-5-1.1-10.1-1.1-15.2.1-8.3.4-16.6.9-24.9 4 2.8 8.4 3.9 13.1 3.9 9.6 0 20.2-4.7 30.7-9.2 7.6-3.3 15.5-6.8 22.5-8.1 2.9-.6 5.9-1.2 8.8-1.8 5.7-1.2 11.6-2.4 17.4-3.3 1.6-.2 5.3-.3 7.9-.3 5.6 10.6 10.9 21.4 15.4 32.5 4.3 10.5 10 20.6 14.4 28.3.6 1.1 1.3 2.2 1.9 3.2.6 1.1 1.3 2.2 1.9 3.3-2.2 1-4.5 2.1-6.7 2.9l-2.5 1c-.8.3-1.5.6-2.1.8-5.1 1-7.8 1.9-9.1 3.2-5.3.2-10.1 1.7-13.2 6.3-.6.9-.7 2.1-.1 3 .9 1.5 1.7 3 23.7 1.2h.2c36.8-2.9 36.9-5 37-7.5.2-2.9-.9-5.3-2.9-7-.1-.1-.2-.1-.3-.2 4.5-1.2 7.4-2.5 8.6-4.3.8-1.1.5-2.7-.7-3.5-1-.7-2.3-.5-3.1.3-.5-.3-1.2-.5-1.8-.4-3.2.6-6.3 1.3-9.5 2.1 1.6-.6 3.1-1.2 4.7-1.7 3.4-1.1 10.4-2.4 15.1-3.3l1.8-.4c1.4-.3 2.2-1.6 2-2.9s-1.6-2.2-2.9-2l-1.8.4c-5.1 1-12 2.3-15.7 3.5-2.2.7-4.4 1.6-6.6 2.4-4.4-10.6-11.5-21.8-17.9-32-2.6-4.2-5.1-8.2-7.4-12-1.6-2.8-3.1-5.6-4.7-8.5-3.7-7.2-7.3-14.3-10.9-21.5-4.7-10.1-9.8-20.1-14.9-29.9-4-8-7.9-16-11.8-23.9-3.2-6.5-6.4-13-9.7-19.6-2.7-7.1-5.7-14.2-9.2-21.1-1.4-2.8-3.3-5.7-5.5-8.9-10-20.9-16.8-32.7-21.7-39-2.5-4-5.3-7.7-8.5-10.6-1.4-2.7-2.7-5.4-3.5-7-.3-.7-.8-2.6-1.1-4-.8-3.2-1.3-5.2-3.6-5-.5 0-2.2.3-2.5 2.7l-.3 2.4c-.2-.5-.5-1-.7-1.5-.3-.6-.8-1.8-1.2-3-1.7-4.3-2.4-6-4.7-5.5-.3.1-1.2.4-1.8 1.4l-1.4-7-1.4 18.4c0 .1-.1 1.3-.3 3.4-.4 0-.7.1-.8.1-2.1.6-2.4 3-2.6 6-.1.6-.1 1.2-.2 1.6-.9 5.7-1.6 11.5-2.2 17.1v.1c-.4 3.2-.7 6.4-1.1 9.6-1.5 12.6-3 25.5-3.6 38.5-.1.6-.1 1.1-.2 1.7l-.3 3.6c-4.7 19.9-9 40.3-5.6 57.9.4 1.9 1.5 2.3 2.3 2.3-.4 4.5-.9 9.1-1.3 13.6-3.4 35-6.9 71.3-3.5 106.1 0 2.9.1 5.7.2 8.6-4.8 1.1-9.4 1.9-14 2.8zm165.9-37.5c-.3-.5-.6-.9-.8-1.4.1-.2.2-.4.3-.7.3.5.6 1.1 1 1.7l.6 1c.4.6.9 1.8 1.5 3-.1.1-.2.1-.3.2-.8-1.4-1.5-2.6-2.3-3.8zM438.7 203c2.6-12.2 2.9-24.6 3.2-36.6.1-4.6.2-9.4.5-14.1.1-.3.1-.5.2-.8 2.4-12.2 4.9-24.7 7-37.3.5.8 1.1 1.5 1.6 2.3-4.1 8.6-6.8 27-8.8 57.8-.1 1.9-.2 3.3-.3 4.2-.8 9.7-2.2 19.7-3.8 29.7.1-1.3.1-2.6.2-3.9 0-.4.1-.8.2-1.3zm44.5-26.1c.5 1.3.9 2.3 1.2 3.1 9 22.2 20.9 43.3 32.4 63.6 3.3 5.9 6.7 11.8 10 17.9-2.7.6-6.4 1.2-11.6 1.9-1.5.2-2.5.3-3.1.4l-7.3 1.4c-3.2-.3-6.3-.5-9.2-.4-7.5.4-15 2.1-22.3 4.5-22.4 3.6-33.4 6.9-38.8 9.5l-1.1.2c.6-8.6 1.3-17.1 1.9-25.4.1-1.6.3-3.2.4-4.8 4.7-23.1 9.6-47.1 11.5-69.9.1-.9.2-2.4.3-4.3.5-8 1.5-23 3.5-36.2 1.3-8.5 2.6-13.9 3.8-17.2 2.9 3.9 6.1 7.9 9.3 11.9 4.8 9.7 11.1 23.6 19.1 43.8zm-49.6 24.3c0 .9 0 1.7-.1 2.6-.3 1.5-.6 3.1-.8 4.6.2-1.4.3-2.8.5-4.2 0-1 .2-2 .4-3zm-4 42.6c-.2 4.4-.4 8.9-.7 13.4l-1.2 6c.7-9.9 1.5-19.8 2.5-29.9-.3 3.5-.5 7-.6 10.5zm124.8 62.5c.2.7.4 1.3.7 2-.5-1.1-1-2.2-1.5-3.4.3.5.6.9.8 1.4zM430.5 177.8c.4-1.6.8-3.2 1.1-4.8-.6 5-1.2 9.9-1.7 14.7v-3.1c0-1.6.1-3.3.1-4.9.3-.7.4-1.3.5-1.9zm-24.2 203.5c.7-.3 1.5-.6 2.4-.9.1.2.2.3.4.5-1.1.1-2 .3-2.8.4zm28.3-6.2c-1 .5-1.7.9-2.3 1.2-2.2.2-4.3.4-6.3.5 0-.3.1-.6 0-.9 0-.3-.1-.5-.1-.8 4.7-1.2 9.7-2.3 14.5-3.2-2.6 1.5-4.4 2.4-5.8 3.2zm9.8-.6c.1-.5 0-1.1-.2-1.6-.3-.6-.8-1-1.4-1.2 1.4-.2 2.8-.4 4.1-.5 2-.2 4.5 0 5.9.4-1.1.7-3.7 1.8-8.4 2.9zm-20.3-10.9c-.1-.7-.2-1.4-.2-2.2.2-1.1.2-2.5.3-4.3 0-1 .1-1.9.1-2.4.6-6.3 1-12.6 1.4-18.7.4-7 .3-14.1.2-21 .3-1.9.6-3.8.9-5.6-.1 2.4-.1 4.7-.1 7-.1 5.4.5 10.7 1.1 15.8 1.2 11.1 2.4 21.7-3.7 31.4zm50.2-82c-14.6 6.4-28.4 12.5-38.3 6.2 3.6-1 7.1-2.1 10.6-3.3v.1l29.9-5.8c2.9-.6 5.8-1.2 8.7-1.7.1 0 .2 0 .4-.1-3.8 1.3-7.6 3-11.3 4.6zm66 72.5c3.7-1.9 9.1-1.5 14.7-.7-7.1.6-11.8.7-14.7.7zm24.6-4.2 8.8-1.7.6-.1c-.1.3-.3.6-.4.8-1.2 1.6-4.8 1.5-9 1zm13.5 1.2c.7-1.1 1.1-2.4 1.2-4 .5.9 1.6 1.5 2.7 1.3.5-.1.8-.3 1.2-.6.3-.1.5-.2.6-.3.5-.3.8-.6.9-1 1.2.3 2 .7 2.6 1.2.4.3.8.8 1 1.6-1.6.6-5 1.2-10.2 1.8zM444.8 106.4c-.6.9-1.2 1.8-1.8 3-.2-2.2-.5-4.2-.9-6.2l-.7-3.7c.9 2.2 2 4.5 3.4 6.9z"/>
  <path d="M1005.9 341.9c-1.2-.7-4.4-2.4-13 6-2-.6-4.9.1-15.3 10.2-5.7 5.5-12 12.4-15.3 16.2-1.5 1.8-9.2 10.9-17.2 18.5-2.2 2.1-4.2 3.9-5.8 5.2-1.8.3-3.7.3-5.5 0-.6-2.3-1.2-4.8-1.7-7.2-.2-.9-.4-1.8-.6-2.6-.8-3.7-.1-19.2.9-31.8.6-2.2 1.3-4.2 1.9-5.9.4-1 1-2.3 1.6-3.6 1.8-3.9 3.7-7.8 2.8-10.9.1-.2.2-.5.3-.7.7-1.5 2.5-7.8 0-10.2-.2-.2-.5-.4-.8-.6.6-3.7.1-4.7-1-5.5-.8-.6-2.1-.8-3.5.2-.8.6-1.5 1.4-2.2 2.3-.1-2-.7-3.5-1.5-4.4-1-1.1-2.4-1.5-3.6-1-6.5 2.4-6.8 12.4-7 21.5-2 3.6-4.1 7.1-6.1 10.5l-3.9 6.6c-5.8 10.1-28.4 42.2-48.4 57.9-1.9.9-3.8 1.7-5.8 2.5l-1.5.6c-2.9-3.3-3.9-9.9-3-18.8.4-4.1 1.3-8.2 2.4-12.2 3-3.5 5.9-6.7 8.8-9.4 1-.9 2.1-2.6 4.5-6 6.7-9.5 19.1-27.2 35-35 .2-.1.3-.2.5-.3.1 0 .1-.1.2-.1.8-.4 1.5-1.1 1.5-2.3v-.7c10.3-3.5 13.2-5.1 13.5-7.7.1-1.3-.5-2.4-1.7-3.1-1.3-.7-3.1-1.1-6.3-.1-.1-.6-.4-1.1-.9-1.4-1.6-1.4-3.3-1.9-14.9 6.2l-1.1-2.2c-.4.2-10 3.9-15.1 8.7-2.6 2.4-5.4 4.9-8.3 7.5-4.4 3.9-8.9 7.9-12.7 11.8-5.8 6.1-11.6 13.8-17.3 21.7-9.2 9.7-18.2 20-26.7 30.8-.2.2-.7.9-1.4 1.8-2.7 3.7-5.1 6.7-7 9.3-3.1 3.2-5.4 5.7-7.1 7.6-5.5 3.2-12.5 5.7-18.6 4.8-3.6-.6-6.5-2.4-8.7-5.3-5.1-7-9.1-14.7-12.2-23.2 0-1.9.1-3.7 0-5.3 21.3-23.6 37.5-48.9 49.3-77 .1-.1.1-.2.2-.3 3.9-6.3 7.9-12.6 11.6-19 7.2 3.3 15 5.3 23.4 6 11.4 1 21.7-4 30.2-11.5 14.6-2.5 25.9-9.8 33.6-22 4-6.2 7-13.7 9.1-22.4 7.5-17.4 11.8-38.7 11.4-57.3-.6-26.7-9.6-56.1-18.8-83.9-3.9-11.7-8-23.5-12.1-35.1-2.2-15.5-4.5-27.2-7-35.5 9.9-3.2 21.1-7.2 32.4-11.5 1.1-.4 2.1-.8 3.1-1.2.2 2.2.4 4.4.8 6.8l-7.4 3.7 7.7-1.9c.2 1 .3 2 .5 3 .1 2.1.3 3.8.4 4.5.6 3.3 1.3 6.7 1.9 10.1 2.6 14.1 5.4 28.6 9.8 42.5.1.2.2.5.2.7 5.8 32 11.4 53.6 19.1 57.8.2.1.3.2.5.3.2.9.3 1.8.5 2.7-3 .1-4.1.6-4.3 2.4-.1.7 0 2.3 2.5 3 .9.3 1.9.5 2.8.7 1.1 7.7 1.7 15.4 2.4 23 1 11.1 2 22.7 4.2 34 0 .3.1.7.2 1.2 3.5 19.7 7.3 30.7 11.9 34.2-2.3 2.4-8.5 5-14.1 7.1l-3 .6c-14.6 2.9-31.1 6.1-37.5 12.5l-1.3 1.2.7 1.6c.8 1.7 1.1 1.6 8.2 1.2 2.1-.1 4.9-.3 8.1-.6-3.9 1.4-5 2.4-4.6 4.3.1.2.5 2.3 3.2 2 12.5-1.4 24.9-4.6 36.8-7.8 1.6-.4 3.3-.9 4.9-1.3.5 0 1.1 0 1.6-.1 23.1-.9 51.7-2 64.2-16.7.9-1.1.8-2.6-.3-3.5-1.1-.9-2.6-.8-3.5.3-7.9 9.3-24.6 12.5-41.1 13.9.2-.4.2-.9.1-1.3-.3-1.4-1.6-2.2-2.9-2-6.3 1.2-12.6 2.8-18.9 4.4-2.2.1-4.3.2-6.3.3 1.7-.8 3.3-1.5 4.7-2.2 1.8-.4 3.7-.8 5.5-1.2 15.7-3.3 31.9-6.7 47.9-9.8 1.4-.3 2.2-1.6 2-2.9-.3-1.4-1.6-2.2-2.9-2-13.5 2.6-27.1 5.5-40.5 8.3.3-.4.3-.8.4-1 .6-2.2.5-5.1-.1-8.2 1.1-9.9-1.2-30.8-12.1-78.7-.4-2.8-.8-5.5-1.3-8.3 2.2.1 4.4.2 6.6.2 44.3 0 89.4-27.5 106.3-59.4 8.5-16.1 17.4-47.7-18.7-78.2-9.8-8.3-22.1-12.1-35.1-13.5-10.7-6.8-22.4-10.9-32.8-10.9h-.1C987.4-.9 972.4 3 958 6.6c-1.5.4-3 .8-4.4 1.1-6.9 1.1-13.9 2.3-20.8 3.7-2-4.3-3.2-5.6-4.5-5.9-.1 0-.1-.1-.2-.1l-1.4-.9-1.4.9c-.8.6-1.2.8-1.3 4.3-.3 1.1-.5 2.3-.6 3.6-1.2.3-2.5.5-3.7.8-12.2.4-25.4 3.7-38.2 7.1-1.1-1.3-2.3-2.2-3.5-2.7l-1.5-.6-1.2 1.1c-.9.8-1.1 1-.3 3.9h-.1c-14.5 2.3-29.3 4.7-43.8 7.6-2.7.5-2.6 2.4-2.6 3 .3 2.4 2.6 2.2 4.7 2 1.2-.1 2.7-.2 4.2-.4 1.2-.1 2.3-.2 3-.3 2.3-.2 4.6-.5 7-.9.5.3 1.2.5 2.4.4 2.2-.3 4.2-.5 6.1-.7.2.5.6.9 1.3 1.2-.3.2-.7.4-.9.6-6.1.1-11.6 1.4-13.2 2.7-1.6 1.3-1.5 3.1-.6 4.2 3 3.9 10.2 3.5 22.6-1.2.5.1 1 .2 1.5.4 3.1 4 6.1 9 7.3 12.2 1.1 3 2.3 6 3.4 8.9.8 2.2 1.7 4.3 2.5 6.5 1.5 8.3 2.4 17.2 3.3 25.3.8 7.3 1.5 14.1 2.5 19.2 1.9 9.6 4.6 20.2 7.5 31.5 1.2 4.7 2.4 9.5 3.6 14.3.6 39.1-1 81.3-7.6 98.3-2.8 7.3-6.2 13.4-9.9 18.5-5 2.6-10.5 4.8-16.7 6.6-4.2 1.2-8.2 2.1-12.1 2.8-7.7-1.1-15.1-3.9-22.1-8.5 6.2-14.4 9.9-29.7 8.3-46.7-.1-.6-.1-1.4-.2-2.3-.3-4.4-.7-8.4-1.3-11.8.1-2.4 0-4.8-.3-7.1.7-5.4.4-8.9-.8-10.6-.6-.9-1.5-1.4-2.5-1.4-1.2-2.6-2.7-5-4.6-7.4-1.7-2-3.5-2.4-4.9-2.3-3.6.3-7.3 3.9-11.6 11.5l-.2.3c-.1.1-.2.3-.2.4-8.7 6.5-15.3 17.5-20 26.9l-1.2-2.7c-12-27-21.8-63.2-28.4-104.5-.2-1-.5-3.3-.8-6.3-.1-5.2-.2-10.3-.2-15.3 0-15.2-.1-28.4-3.3-37.8l.1-.1c2.6-3.5 11-7.8 14-9.1l20.3-9-25.9 5c.1-.5 0-1-.2-1.5-.2-.6-1-1.9-3.3-1.8-2.4.1-4.9.2-7.3.3-8.9-.9-17.3.3-26.1 1.5l-1.9.3c-1.5.2-4.2.5-6.7.9-1.8.2-3.5.4-4.8.6-2.4.3-4.5.6-4.3 3.1.1.7.4 1.3.9 1.6-2.4 1-5 2.1-7.6 3.3-.6-.2-1.1-.3-1.3-.5-.6-.8-1.7-1.3-3-1.5-.6-.1-2.6-.1-3.9 1-2.8 2.6-1.6 9.3 2.2 22.6 0 .1.1.3.1.4-.9 7.9-.4 15.3.8 22.4-8.4-11.3-17.2-19.7-26.5-25-8.7-7.5-17.5-12.4-25.3-12.4h-.3c-32.7.5-46.7 13.6-53.5 32.3-3.1 2.3-6.1 4.8-9 7.6-22.5 21.1-37.2 52.6-37.4 80-.2 24.4 8.6 56.5 23 83.6 16.6 31.2 38.2 52.6 61 60.2 5.4 1.8 11 3 16.6 3.6 2.7.7 5.4 1.2 8.1 1.6-7.2 24.4-11.8 49.3-11.1 71.2-2.7 6.7-5.6 13-8.8 18.5-2.7 3-5.4 5.9-8.1 8.8-.4.4-.9 1-1.7 1.8-6.3 6.9-11.9 12.7-16.9 17.7-4 3.3-8.2 6.6-12.6 9.6-5.5 3.9-16 9.1-20.7 9.8 0 0 0-.1-.1-.1-1.5-2.1-2.4-4.6-2.8-7.3.1-.5.2-1 .3-1.6l.4-.1c1.7-.5 1.9-.5 4.9-13.9.2-.9.4-1.7.6-2.5 1-2.3 1.9-4.5 2.8-6.8.4-.7.7-1.4 1.1-2.1.3.3.7.6 1.2.7 1.3.4 2.7-.4 3.1-1.8.3-1.2.7-2.5 1-3.7.7-2.4 1.3-4.9 2-7.3 1.9-3.3 3.8-6.6 5.3-10.2 1.9-4.4 2.3-5.5 1.2-6.8l-1-1.2-1.5.3h-.1c.1-.5.1-1.1-.1-1.6s-.8-1.8-2.7-2c-2.2-.3-4.6.9-7 3.5-.5.5-1 1.1-1.4 1.7-2.2.2-5 2.4-9 13-2.3 6-4.5 13.5-6.2 21-5.1 11.4-7.6 22.7-2.2 37.2.8 2 2.2 3.4 4.2 3.9.7.2 1.8.5 3.8.1 1.3 1 2.8 1.6 4.5 1.9.6.1 1.3.1 1.9.1 1 0 2-.1 3.1-.3 18.7 2.3 36.1-18.1 47.2-31.1 1.9-2.2 3.7-4.4 5.3-6.1 4.4-4.9 8.3-10 11.9-15.3 0 .3.1.5.1.8-1.1 10-.8 17.7 2.8 20.8 1.1.9 2.1 1.1 2.8 1 1.5 3.4 3.4 6.4 5.8 8.6 1.8 1.7 4.4 2 7.5 1.5 1.7 1.9 3.6 3.3 5.5 3.7 11.2 2.3 21.8-3.5 31.1-11.7 4.4-3.2 8.3-7.5 12-12.2 2.8-3.2 5.4-6.4 7.8-9.2 2.4-2.9 4.7-5.7 6.6-7.8 6.3-7 13.1-14.8 19.9-23.4.4 10.6 2.1 21.3 6.9 28.7 2.3 5.7 6 10.2 12.1 12 4.2 1.3 8.3 1.9 12.2 1.9 20 0 36.7-15.4 51-32.2-1 4.4-.8 8.1 1.5 10.2 3.6 3.2 8 4.3 13.1 3.5.3 0 .5-.1.8-.1.4.2.9.4 1.4.5 3.1 1 7.4-.4 12-3l1.2-.6c2.9-.3 6.1-1.3 9.6-3.1 16.3-8.1 33-27.5 43.9-46.1 3.2-3.9 6.3-7.8 9-11.9-.1.6-.3 1.2-.4 1.9-4.5 21.7-7.8 40.1-1.7 46 1.2 1.2 3.4 2.4 6.9 1.6 2.1-.5 4.2-1.2 6.3-2.1.7.5 1.5 1 2.3 1.3 4.3 1.6 9.6-.1 16.7-5.4 5.8-4.4 37.6-35.2 42.5-40.3.6-.6 1.2-1.3 1.9-1.9 6.7-6.9 11.9-12.3 11.2-17-.2-1.2-.9-2.9-3.1-4.1zm-417.7 70c-.2.3-.4.8-.6 1.2.3-.8.5-1.5.8-2.3.1-.2.2-.4.3-.5.2-.3.5-.6.8-.9-.4.7-.8 1.5-1.3 2.5zm-7.9 60.4c-.1 0-.2 0-.3-.1.4-.1.7-.2 1.1-.4-.3.2-.6.4-.8.5zm1.9 5.3c-.1 0-.2 0-.3-.1h.5c-.1.1-.1.1-.2.1zm46-37.6c-10 11.2-23.5 23.5-34.7 29.3 3.5-2.7 7.5-6 12.1-10l.6-.5c6.8-5.9 14.7-12.8 21.6-20.1 1.9-2.1 3.8-4.3 5.6-6.7 4-4.2 7.9-8.5 11.7-12.9 0 .3.1.6.1.9-5.6 7-11.3 13.7-17 20zm173.6-140 .6-1.4c1.1-2.4 2.1-4.8 3-7.2.2.1.4.1.6.2l-.9 1.8-3.3 6.6zm-84.1-159.1c-.9-1.4-1.7-3-2.5-4.5-.2-.4-.3-.8-.5-1.1-1.4-11.6-4.9-26.6-8.8-42.3-1.4-5.5-2.5-10.3-3.1-13.3-.1-.6-.4-1.6-.7-2.9 0-.2.1-.4.1-.6 1 4.6 2.5 9.1 4 13.5 1 2.8 2 5.8 2.8 8.6 4.4 15.6 7.9 31.1 10.9 46-.7-1.1-1.4-2.2-2.2-3.4zm-7.3 3.7c-.2-1.1-.4-2.1-.5-2.7l-.3-1.3c-.1-.5-.2-1.1-.3-1.6.4 1.3.7 2.6 1.1 3.9v1.7zm-12.3-29.9c-.3-.5-.6-.9-.9-1.4l.3.3c.1.4.3.7.6 1.1zM584 242.8l.5 3.6c.6 4.2 1.1 8.5 1.8 12.9-10-20.3-16.2-42-17.4-60-2-28.9 4.6-57 17.9-78.1-.6 5-1 10.1-1.4 15.2-.4 4.6-.8 9.5-1.3 14.2-3.8 35.9-3.8 64.3-.1 92.2zm108.3 22.7c.7-1.4 1.6-3.9 2.8-6.9 1.6-4.2 4-10.3 6.8-16.7 8.4-10.4 19.2-21.6 25.7-22.2.6.8 1.3 1.7 2 2.5.3.4.6.7.9 1.1.2 3.5.2 7.5 0 12-.6-.6-1.4-1-2.3-.8-1.4.3-2.2 1.6-2 2.9.1.3.1.7.2 1-.2.5-.3 1-.2 1.5.8 3.9 1.2 7.8 1.4 11.7v3.3c-.3.9-.6 1.9-.8 2.8-1.5 5-2.8 9.3-3.4 12.4-.1.4-.2.7-.2 1.1-5.6 11.7-13.6 23.4-23.3 32.9-2.8 2.8-5.6 5.2-8.4 7.4-5.8 1.5-12.1 2.5-18.8 3 .9-2.8 1.8-5.6 2.7-8.3 5.2-14.4 11.2-28.1 16.9-40.7zm-1.9-16.6c.8-2 1.7-3.9 2.7-5.9-.7 1.7-1.4 3.4-2.1 5.2-.3.2-.4.4-.6.7zm19.8-23.6c3.7-6.3 7.6-11.3 11.3-12.8.6-.2 1.1-.4 1.6-.4.3 1 .8 2.1 1.4 3.2-3.9 1.3-8.7 4.7-14.3 10zM680 318.8c-3.3 1.6-6.5 2.9-9.7 3.7.1-.3.1-.6.2-.9.1-.6.3-1.3.4-1.9 3.1-.2 6.1-.5 9.1-.9zm35.5-22c-1.2 2-2.5 4-3.9 5.9-2.2 1.7-5 3.3-8 4.7 5.3-5.3 10.1-11.1 14.3-17.2l-2.4 6.6zm-51.7 26.9c-.5 0-1.1.1-1.6.1.4-1.3.8-2.6 1.3-3.8h1.5c-.4 1.2-.8 2.5-1.2 3.7zm3.4-10c-.1.4-.3.8-.4 1.3h-1.5c1.4-3.9 2.8-7.7 4.2-11.5-.8 3.3-1.6 6.7-2.3 10.2zm-10.2 10c-.9-.1-1.8-.2-2.7-.4-3.3-.7-6.4-1.6-9.6-2.8-1.3-.6-2.6-1.3-4-2 1 .2 2.1.3 3.2.5 4.6.6 9.4 1 14.2 1.1-.3 1.1-.7 2.3-1.1 3.6zm-92-107.1c-2.8-14.5-3.4-29.3-1.7-44 2-16.6 6.9-32.1 14.6-46-10.8 20.7-15.8 46.2-14 73 .7 9.7 2.6 20.1 5.7 30.6-1.7-4.4-3.2-8.9-4.6-13.6zM606.4 92c.7-.6 1.3-1.1 2-1.6 2.2-1.1 4.4-2.1 6.7-3-.9.5-1.9 1.1-2.8 1.6-2 1-4 2-5.9 3zM742 51.2c-3.8.9-7.5 2.1-11.1 3.3-6.7.8-12.3 1.1-16.8 1.2 12.5-4.9 21.7-6.4 27.9-4.5zm-42.2 12.2c0 .4-.1 1-.2 1.6-.2.1-.3.1-.5.2-.1-.6-.2-1.1-.3-1.7.3-.1.7-.1 1-.1zm-31.4 15.2c-4.4-1.7-8.6-2.5-12.6-2.3-5.1.2-10 .8-14.8 1.7-5.7-.3-11.4.3-17.1 1.5 16.6-9.6 31.4-8.2 44-1.3.2.2.4.3.5.4zm7.6 9.6c-5-3-10.4-5.3-15.8-6.6 5.1.7 10.6 3.1 15.8 6.6zm29.9 39.9c.2.5.3 1 .5 1.6-.5-1.3-1.1-2.7-1.8-4 .4.8.9 1.6 1.3 2.4zm-1.8-67.8 2.1.3c2.3.2 5 .3 8 .2-3.1 1.1-6.3 2.1-9.5 3 .1-1.4-.1-2.6-.6-3.5zm104.7 206.2-1.8 5.7c-5.1-4.5-9.7-9.9-13.6-16.4-.5-.7-.9-1.5-1.3-2.3 1-2.1 2-4.1 3.1-6.2 4.1 7 8.6 13.5 13.6 19.2zm5 5.4c-.5 1.5-1 2.9-1.5 4.4-.4-.3-.8-.6-1.2-.8.5-1.6 1-3.2 1.5-4.7.5.3.9.7 1.2 1.1zm87.8-112.8c-.1-4.3-.2-8.6-.3-12.8 6.3 26.3 12.8 55.5 10 80.2-.1 1.3-.3 2.5-.5 3.8 0-.6.1-1.1.1-1.7 1.3-22.1-3.7-46.6-9.3-69.5zm-55.9 133.1c-5.9.3-12.1.2-18.3-.6-2-.2-4-.5-5.9-.9.1-.1.2-.3.2-.4 6 1.4 12.4 1.8 19.3 1.4 1.5.3 3.1.4 4.7.5zm-56.3-33.4c4.6 7.3 9.9 13.4 15.9 18.3-.1.2-.1.4-.2.6-.2-.2-.5-.3-.7-.5-6.1-4.3-11.4-10-15.8-16.6.2-.5.5-1.1.8-1.8zm27.4 30.2c-.1.2-.3.5-.4.7-.1 0-.2-.1-.3-.1.1-.3.2-.5.2-.8.2.1.3.1.5.2zm-6.3-8c-.3-.2-.7-.4-1-.5v-.1c.4.1.7.4 1 .6zm8.3-.8c.3-1 .5-2 .8-3.1.7.6 1.5 1.2 2.3 1.8-.4.8-.7 1.5-1.1 2.3-.7-.4-1.3-.7-2-1zM792 241.9c-.4.8-.7 1.5-1 2.1-.7 1.3-1.3 2.7-2 4-.4-.9-.9-1.8-1.3-2.6 1-1.8 2.1-3.5 3.2-5.3.5.6.8 1.2 1.1 1.8zm-5.6 11.7c-.3.7-.7 1.4-1 2.1-.3-.6-.7-1.2-1-1.8.3-.8.6-1.7.9-2.5.3.7.7 1.5 1.1 2.2zm-6.6-11.1c-1.1-4-2.1-8.2-3.1-12.5 1.2 3.8 2.5 7.6 4 11.2-.4.4-.7.9-.9 1.3zm-24.7-115.7c.1 1.3.2 2.7.3 4.1.4 6.2.8 12.8 1.3 19.6-.7-5.7-1.2-11.2-1.8-16.3-.3-2.8-.6-5.4-.9-8-.3-2.6-.6-5.5-.9-8.6.8 3.3 1.5 6.4 2 9.2zm26.1 136.4c.1.3.2.5.3.8-.6 1.3-1.2 2.5-1.7 3.8.4-1.5.9-3 1.4-4.6zm60.9 34.4c-.7-.1-1.4-.2-2.2-.2 3.8 0 7.5-.2 11.1-.6-3.3.8-6.3 1.1-8.9.8zM902.4 107c9.1 27.5 18 56.4 18.6 82.4.2 9.4-.8 20-3.1 30.7.3-10.6-.2-22.2-1.7-35-3.8-32.7-12.5-62.5-16.7-76-.4-5.6-.9-10.7-1.4-15.1 1.4 4.4 2.9 8.8 4.3 13zm167.8-39.8c-.6 5.7-2.6 11.2-5.2 16.3 1.5-7.9 2.1-16.8 1.5-27-.2-3.6-.9-7.2-2.1-10.7.7 1 1.3 2 1.9 3 3 6.2 4 12.6 3.9 18.4zm-36.7-44.5c6.5 2.3 11.9 4.9 16.4 7.8.6.6 1.2 1.2 1.7 1.9 5.7 7.5 9.5 16 9.9 24.4 1 17.3-1.3 30.6-6.5 41.5-20.8 25-58.7 46.7-82.2 48.6-4.1-21.2-9.3-41.2-15.7-60.2-3.7-17-7.7-34.3-14-51.2l-.1-.3c-1.3-3.4-2.4-6.2-3.3-8.5 1.2-.3 5.5-1.4 7.9-1.9 10.5-2.5 21.8-4.7 32.8-6.4h.1c2.7-.4 5.5-.8 8.3-1.3 15.7.4 31.4 1 44.7 5.6zM967.2 152h.4-.4zm-3-9.6c-1.1-3.4-2.1-6.8-3.2-10.2-1.5-7.8-2.9-15.7-4.2-23.4.8 3.3 2.1 8.5 3.7 15 1.5 5.8 3.1 12.4 4.9 19.7-.4-.5-.8-.8-1.2-1.1zm-24-85.3c-.1-.4-.1-.8-.2-1.2.5 1.2.9 2.3 1.4 3.5l1.8 4.5c2.1 9.6 3.9 19.2 5.7 28.8-2.7-9.3-5.2-18.7-7.3-28.2-.2-1-.7-3.8-1.4-7.4zm4.1 38c.4 1.5.9 3 1.3 4.5-.4-1-.7-1.9-1-2.9-.1-.5-.2-1.1-.3-1.6zm5.8-78.4c-6.6 2.8-11.4 5.1-12.3 5.6-.1-.2-.2-.4-.2-.5-.7-1.5-1.3-2.9-1.8-4.1 4.6-.6 9.4-.9 14.3-1zm-20.2 13.6c1.2 5.4 2.5 12.1 3.6 17.8-1.2-4.9-2.5-10.1-3.4-15.2-.1-.8-.1-1.6-.2-2.6zm66.9 118.5c3.6-1.6 7.1-3.3 10.7-5l1.8-.9c23.5-11.2 40.6-23.1 49.8-41.6 1-1.3 2-2.6 3-3.8-12.5 25.1-36.9 44-59.5 50.4-1.9.2-3.8.5-5.8.9zM990.5 12l-2.1.3h-9.8c1.5-.3 3-.6 4.5-.8 2.4.1 4.9.3 7.4.5zm-28.1-.1c-.5 0-1.1 0-1.6-.1l2.7-.3c-.4.1-.8.3-1.1.4zm-87.8 28.8c-.5-.6-1.1-1.2-1.8-1.7 1.9-.4 3.8-.9 5.9-1.5.3.5.5 1.1.8 1.6 1.1 4.2 2.1 7.8 2.2 8.2 1.3 3.6 2.5 7.2 3.8 10.8 1.6 7.1 2.8 14.8 3.8 22.3l-4.8-12.6c-2-11-4.9-21-9.9-27.1zm95.7 175c-.1-.6-.2-1-.2-1.3-2.1-11-3.2-22.4-4.1-33.5-.2-2.5-.5-5.1-.7-7.6.2.7.4 1.5.6 2.3 3.7 13.4 8.8 32.1 11.5 47.9.1 1.1.3 2.3.6 3.7 1.1 7.2 1.6 13.6 1 18.3-2.1-3-5.3-10.5-8.7-29.8zm12.2 36.2c.1 0 .1 0 .2-.1-.1.2-.2.3-.3.4-.1.1-.2.2-.3.4.1-.2.3-.4.4-.7zm-.5-95.8c1.6-.2 3.2-.5 4.8-.7.4-.1.9-.1 1.3-.2 5.7-.1 11.6-1.1 17.6-2.9 5-.9 10.1-1.9 15-3.1-13 4.6-26.1 6.9-38.7 6.9zM1087 56c4.6 12.1 3.9 25.4-2 38.7-8.6 19.2-27.7 36.7-48.6 44.6-3 1.1-6.1 2.1-9.2 3.1 3.5-2.2 7-4.8 10.5-7.6 17.8-14.5 31.1-34.4 35.8-53.3 1.2-5 1.8-9.7 1.8-14.3.7-7.6-.9-14.7-4.7-21.1-3.5-7.1-9-13.3-16.3-18.4-1.4-1.7-2.9-3.4-4.4-5 16.8 7 31.1 17.8 37.1 33.3zm-85.5-51.9h.1c6.4 0 13.5 1.8 20.5 4.9-11.7-2.3-23.9-3.3-35-3-1.4 0-2.8.2-4.3.4-.4 0-.9 0-1.3-.1 6.8-1.3 13.5-2.1 20-2.2zM890.4 112.7c-.9-4.9-1.7-11.6-2.4-18.8-.1-1.3-.3-2.6-.4-3.9 1.7 4.6 3.3 9.2 4.8 13.7.5 3.9 1.1 7.5 1.7 10.7.3 1.5.6 3.1.9 4.6.3 5.5.6 11.4.9 17.5-2.2-8.3-4.1-16.4-5.5-23.8zm3.2 146.9c5.6-14.4 7.8-45.1 8.1-77.2 3.1 15.7 5.1 31.4 4.3 45.9-.8 13.9-4.2 25.7-10.2 35.3-2.2 2.4-4.6 4.6-7.2 6.6 2-3.7 3.7-7.3 5-10.6zm-61.8 25.5c-2.2-.6-4.3-1.2-6.3-2 .2-.4.4-.9.6-1.3 1.8 1.2 3.7 2.3 5.7 3.3zm0-49.4c.5 13.7-2.7 26.3-7.8 38.5l-3-2.4c.1-.5.3-1 .4-1.5.3-1.4 1-3.9 1.9-7.1.8-2.9 1.6-5.8 2.4-8.6.1-.2.2-.5.3-.7l.6-1.8c1.7-5.2 3.6-10.7 5.2-16.4zm-2.9-24.4c0 1.1 0 2.2-.1 3.5-.6 2.7-1.3 5.9-2.4 9.8-1.5 5.7-2.9 11.5-4.3 17-2.1 8.5-4.1 16.8-6.5 24.9-.4-.4-.8-.8-1.2-1.3 2.2-7.4 4.2-14.8 6.2-22.1 1.6-5.7 3.2-11.7 4.8-17.5 1.6-5.8 2.7-10.6 3.5-14.3zm-6.5-18.8c.1 0 .3 0 .6.4.4.5.7.9 1 1.4-1.7.1-3.3.4-4.9.8 2.1-2.4 3.2-2.6 3.3-2.6zm-1.7 13.9c1.4-.5 2.7-.7 3.9-.4-.5 4.2-1.8 10.2-4.1 18.3-1.7 5.8-3.3 11.8-4.8 17.5-1.7 6.3-3.4 12.6-5.2 18.9-4.5-5.5-8.8-11.8-12.8-19.1.2-.4.3-.8.5-1.2 4.2-9.8 13-30.4 22.5-34zM796 232.9c-.5 1.1-1 2.2-1.4 3.2-.1-.2-.3-.5-.4-.7.6-.9 1.2-1.7 1.8-2.5zm-9-.8c-1 1.4-2 2.7-3 4.1-4.1-11.1-7.2-23.3-9.7-36 3.7 11.1 7.9 21.8 12.7 31.9zM753.2 70.2c-.2-1-.4-1.8-.5-2.7 0-.1 0-.2.1-.2.1.9.3 1.9.4 2.9zm.8-21.4-4.6.9c-.3-.2-.5-.4-.8-.6 1.6-.1 3.3-.2 4.9-.3h.5zM600.8 88.1c8-14 22.4-20.6 45.1-20.9h.2c1.6 0 3.3.3 5 .8-10.2-.9-20.6 1.8-31 8.1-5.1 3.1-10 6.5-14.5 10.2-1.8.9-3.6 1.9-5.4 3 .2-.5.4-.8.6-1.2zm-27.4 175.3c-14-26.4-22.6-57.6-22.4-81.2.2-24.8 12.8-53 32.4-73.1-1.1 1.4-2.1 2.8-3.1 4.2-1.5 1.7-2.9 3.5-4.3 5.3-19.1 25-26 56.9-18.9 87.5.9 3.8 1.9 7.6 3 11.4 5 25.9 16.7 50.6 34.1 71.2 1.3 3 2.9 6 4.7 8.7 3.4 5.3 8.9 9.7 16 13.3 2 2 4 3.9 6 5.8-17.6-9.7-34.2-28.1-47.5-53.1zm87.9 68.3c-1.3 4.3-2.5 8.7-3.7 13.1-.2-.8-.6-1.4-1.1-1.7 1-3.8 2.1-7.7 3.3-11.5.5.1 1 .1 1.5.1zm-3 41.6c3.7-13.3 6.9-27.5 10-41.6 2.7-.1 5.3-.5 7.9-.9 9.4-1.2 18.3-5 26.2-11.3 1-.8 2.1-1.6 3.1-2.4.4-.3.7-.6 1.1-.9-6.3 12.2-13.6 23.9-21.1 36-5.1 8.1-10.3 16.6-15.2 25.1-.7 1.2-1.3 2.4-2 3.5-4.2 5.5-8.5 10.9-12.8 16.1.7-7.9 1.6-15.8 2.8-23.6zm.2 78.6c-.8-1.5-1.4-3.5-1.9-5.7.8 2.1 1.8 4.4 2.9 6.6-.4-.2-.7-.5-1-.9zm11 4.4c-.5 0-1.1 0-1.6-.1-.6-.3-1.2-.7-1.7-1.2-.7-1.1-1.4-2.4-2.1-3.9-.7-2.6-1.3-5.3-1.9-8.1 1.2 1.6 2.3 2.8 3.3 3.8 3.1 2.9 6.4 5 10.1 6.1-2.3 1.6-4.4 2.6-6.1 3.4zm29.7-5.5c-2 1.4-4.1 2.6-6.2 3.5-1.3.5-2.9 1-4.7 1.5 1.5-.9 2.9-1.8 4.4-2.9 3.6-1 6.5-2.6 9.2-4.5-.9.9-1.8 1.7-2.7 2.4zm49.4-63.8v1.1c-6 7.3-12.4 14.4-19.1 21.5-2.7 2.9-18.2 17.2-33.9 29.5-5.3 4.2-9.9 7.5-13.7 10-4.7-.3-9-2.3-12.8-5.9-3.7-3.6-6.7-8.4-9-13.8-.4-2.9-.9-5.9-1.5-8.8-.1-.7-.2-1.8-.3-2.9.8-2.6 1.7-5 2.6-7.4 23-28.9 40.1-57.4 52.9-88 4.4-9.4 8.2-18.6 11.2-27.6 2.9-4.3 5.3-8.9 7.2-13.7 2-4.8 3.6-9.6 4.4-13.7.6-2.9.8-5.9.7-9.1 3-9.6 4.5-19.4 2.4-28.9 0-.2-.1-.3-.1-.5.2-3.9-.1-7.5-1-10.7-.5-4.1-1.8-7.7-4.1-10.3-.7-.8-2.9-1.8-5.1-2.3-.5-.3-1-.6-1.5-.7-4.2-1.5-8.6-.5-13 3-6.6 3.1-18.7 12.6-30.5 42.2-2.8 7-5.3 14.9-7.7 23.4-6 12.8-11.8 26.9-16.9 41.5-5.1-.1-10.2-.4-15.3-1.1-5.9-.8-11.4-1.9-16.3-3.4-7.7-5.6-15.6-12.8-23.2-21.3-3.8-4.8-7.4-10-10.8-15.4-2.4-9.3-3.7-19.1-4.9-28.2l-.5-3.6c-3.7-27.5-3.7-55.5.1-91 .5-4.8.9-9.6 1.3-14.3.7-8.5 1.4-16.7 2.7-24.4 1-1.2 2-2.4 3-3.5 5.5-6.2 11.8-11.4 18.7-15.6 10.5-4.9 22-7.6 34.1-8.1 2-.1 4 0 6.1.3 12.5 4 28.4 13.9 42.2 36.9 4.1 6.9 6.2 12.2 7.5 18.9l.2 1.3c1.8 9.6 2.8 12.7 5.5 13 .7.1 2.3.1 3.4-2.1.4-.8.7-1.8.9-2.8.6.7 1.4 1.2 2.6.8.3-.1.7-.2 1-.6.9 1.3 1.6 2.4 2.2 3.3 2.3 3.4 3.1 4.6 5.1 3.8l1.9-.8-.4-2c-3.4-17.6-7.7-38.4-13.4-58.5-.8-3-1.9-6-2.9-8.9-1.5-4.4-3.1-9-4-13.5-.4-1.9-1.8-3.5-3.2-5.2 0-.1 0-.1.1-.2 7-1.6 13.7-4.2 20.2-6.7 2.7-1 5.3-2 8-3 4.1-.5 8.2-1.1 12-1.7.1 1.8.6 5.2 1.6 12.3.3 2 .6 4.1.9 6.1-.6 18.4 1.1 37.5 2.6 50.7.3 2.5.6 5.2.9 8 3.1 29.2 7.4 69.2 20 102.8 1.6 4.4 3.4 8.5 5.3 12.5-.2.4-.5.8-.7 1.3-15 26.9-25 57.2-28.2 85.3-1.9 18.5-1.1 35.4 2.5 50.7zm2.1-26.7c-.1.5-.3 1-.4 1.4-.3-7.9 0-16.1 1-24.6 2.8-24.5 10.9-50.7 23-74.8-2 5.1-3.7 10.2-5.1 15.4-9.4 27.9-15.8 56.2-18.5 82.6zm6.6 9.2c.3-1.1.7-2.1 1-3.2 1.4-4.5 2.9-9.1 3.9-13.8 2.1-10.5 3.8-20.8 5.4-30.8.8-5.2 1.7-10.3 2.6-15.4l.6-3c3.8-10.8 8.2-21.8 13.3-33 1.9 4.1 3.9 7.6 6 10.3 2.6 3.4 6.4 6.3 10.8 8.6-1 2.5-2 4.9-3.1 7.3l-.7 1.6c-10 22.5-20.6 46.4-33.3 68.8-2.2 3.4-4.5 6.7-6.8 10 .1-2.4.2-4.9.3-7.4zm21.1 64.8c-5-.2-9.5-2.5-13.3-6.7-3.5-4-6.1-9.1-7.9-14.6 0-.7-.1-1.4-.1-2.2 2.4 4.7 5.1 9.2 8.2 13.5 2.9 4.1 7 6.5 11.9 7.3 4.6.7 9.6-.1 14.2-1.8l.1.5.5.3c-.8.4-1.5.9-2.3 1.2-3.9 1.8-7.7 2.7-11.3 2.5zm6.3 5.1c2.2-.7 4.3-1.5 6.4-2.6 15.2-6.2 31.2-22.6 45.1-39.3-.1.3-.2.5-.3.8-14.8 18.7-31.3 38.3-51.2 41.1zm50.9-20.4c-.3-.3-1.6-2.3 2.6-13.1-.5 5.2 0 10.3 2 15.4-1.7-.4-3.2-1.1-4.6-2.3zm5.1-34.9c-.8 1-1.6 2.1-2.5 3.1.9-1.3 1.7-2.6 2.6-3.9-.1.3-.1.6-.1.8zm59.7-6.4c-1.5 1.8-2.9 3.6-4.4 5.3 2-2.5 3.8-5 5.5-7.4-.4.8-.8 1.4-1.1 2.1zm24.3 28.5c-1.2-1.1-1.7-3.5-1.8-6.7.8 2.6 1.7 4.6 2.5 6 .2.4.5.8.8 1.1-1 .1-1.3-.2-1.5-.4zm.6-79.3c.3-1.7.7-3.3 1.3-4.4-.1 1.1-.4 2.5-1.3 4.4zm1.5 63c.1.7.3 1.3.4 2 .3 1.3.5 2.5.8 3.8-.8-1.3-1.1-3.3-1.2-5.8zm3.1 13.4-.1-.2c-.2-.3-.3-.7-.5-1 .2.1.4.1.6.2.1.3.3.7.4 1-.3.1-.4 0-.4 0zm20.5-2.1c-3.9 3-7.2 4.6-9.6 4.9 3.4-2 6.8-4.3 10.2-6.9 1.8-.9 3.5-2 5.2-3.1-2.7 2.5-4.8 4.3-5.8 5.1zm9.2-16.1c2.6-2.8 4.8-5.5 6.6-7.5 3.7-4.4 9.2-10.3 14.2-15.2-6.1 7.1-13.2 15.3-20.8 22.7zm34.6-25.6c-.6.6-1.2 1.3-1.9 1.9-.6.6-1.4 1.5-2.6 2.6 2.9-4.1 5.3-8.5 5.7-11.6 4.1-4.2 7.1-6.2 8.1-6.2.3.2.5.3.5.5.4 2.3-5.8 8.6-9.8 12.8z"/>
  <path d="M601.1 352.8c-1.3-.6-2.7 0-3.3 1.3-.1.2-8.3 22.4-4 28.1.8 1.1 2 1.7 3.4 1.7h.5c4.1-.5 8.1-3.4 11.5-8.3 2.1-.7 4-1.9 5.6-3.3 3.2-1.6 6.4-4.4 6.9-7.5.3-1.8-.3-3.5-1.7-4.6-.7-.6-1.6-1-2.5-1.3-.3-.6-.8-1-1.4-1.2-1.7-1.8-4.2-2.6-7-2.2-.7.1-1.3.3-2 .5-1.7.2-3.5.6-5.1 1.2.2-.5.3-.9.4-1.1.6-1.3 0-2.8-1.3-3.3zm-3.4 26c-.1-.6-.3-2 .1-4.9 1 1 2.2 1.7 3.6 2.1 0 .3.1.5.1.8-1.3 1-2.6 1.7-3.8 2zm5.1-13.9c-.1.5-.2 1.1-.2 1.6-.3.7-.5 1.5-.7 2.3-.3-.4-.5-.9-.3-1.8.3-.6.7-1.4 1.2-2.1zM510 400c-11.7 4.8-29.8 19.2-46.2 36.5.4-1.2.7-2.4 1-3.6.2-1 .6-2.4 1-4 1.8-6.6 3.5-13.3 3.8-19 .3-.5.2-.9.2-1.4l-.2-1.3c-.1-3.1-.8-5.8-2.4-7.8-.7-.9-1.7-1.3-2.8-1.4-1 0-3.5 0-9.2 8l-1.1 1.5c-.3.4-.6.7-.9 1.1-2.2 1.3-4.6 2.9-7.1 4.6-3.6 2.4-7.3 4.8-10.2 6.4-2.6 1.4-6.5 3.9-11 6.8-3.8 2.4-8 5.1-12.3 7.7 1.2-7.7.6-14.6-2.5-19.8-1.4-2.3-4.9-5.8-12.2-3.5-8.5 2.7-17.4 11.2-22 18.8-.8 1.1-1.6 2.2-2.2 3.4-2 3.9-2.4 7.7-1.3 11.3-.6 1.5-1 2.8-1.2 4.1-.5 3.9 1.3 6.8 4.9 7.7 5.8 1.5 11.8 1.1 17.9-.6 1.7-.1 3.4-.4 5-.8-1.4 3.5-2.9 7-4.7 10.6-6.6 11-15.1 22-24.6 31.1-13.6 13-26.4 19.5-36.9 19-5.9-5.1-9.4-10.2-10.7-15.9 0-1.2.1-2.4.2-3.5 2.7-6.4 6.3-12.8 9.9-18.7 11.6-11 26.6-25.6 29.3-38.1 3.6-3.5 6-6.1 7-7.6s.6-3.3-.8-4.2c-2.8-1.9-13 .7-15.2 3.9-.2.3-.4.6-.7 1-1.4 1-2.3 1.7-2.3 1.7-2.4 2.3-4.4 4.9-6.4 7.4-1.5 1.9-2.9 3.7-4.5 5.4-9.6 10.3-20.4 22.3-31 36.1-2.7 2.9-5.4 5.9-8.1 8.8-11.6 12.6-23.1 25-34.3 37.5-.1-3.3-.2-6.7-.3-10.1-.2-5.8-.2-11.7-.1-17.4 0-2.8.1-5.5.1-8.3 1-6.2 1.5-12.3.7-18.2 1.6-1.7 2.9-3.4 3-5.4.1-1.3-.4-2.5-1.4-3.5-1.8-1.9-3.6-1.6-4.5-1.3h-.1v-.1c-.9-5.5-1-5.6-1.9-6.2l-.9-.6-1.1.2c-1.6.3-2.1.4-10.6 17.5-1.3 2.6-2.6 5.3-2.9 5.8-5.1 7.8-10.5 16-16.2 24.1l-4.3 4.3c-12.5 12.4-26.6 26.4-40 34.3-1.9 1.1-3.7 2.1-5.3 2.8-2.6.3-5.2.4-8 .3-.7 0-1.3-.1-1.8-.3-2.5-5.8 3.8-22.9 9.9-36.1.1.2.3.3.4.5 1 .9 2.6.8 3.5-.2 2.9-3.3 5.1-5.9 6.9-8 6.5-7.6 7.5-8.8 19-18.6 8.3-7.1 15.9-10.9 24-14.9 3.7-1.8 7.5-3.7 11.5-6 2.3-1.3 1.9-3 1.6-3.6-.9-2.2-3.2-1.5-5.2-1-1 .3-2.1.6-3.3 1-1.1-1.7-3.1-1.3-5.1-.9-.3.1-.5.1-.7.1-.7.1-5.6 1-9.5 2-.1-.2-.1-.4-.2-.5-.7-1.2-2.3-1.6-3.4-.8-13.3 8.1-25.8 19.5-34.9 32-.4.5-1.6 2.5-3.2 5.4-3 3.8-5.9 7.8-8.6 11.9-6.2 7.7-11.3 15.9-14.3 24.5-.2.5-.4 1.1-.6 1.7-3 8.4-8.1 22.5.3 29.5 3.3 2.7 9.4 1.6 15.5-.5 4-.9 8.7-3.3 13.2-6.1.9-.5 1.7-.9 2.1-1.2 19-11.3 38.2-29.4 53.9-51.1 5.1-7.1 9.6-13.6 13.2-19.5.2 4.1.5 9 .9 14.7.1 2.6.2 5.1.3 7.7-1.3 5.4-2.4 10.5-3 15.2-.8 7.2-1.7 14.2-2.5 20.9-23.7 27-46.1 54.6-66.8 85.3-4.8 7.2-9 16.8-12.6 28.9-3.1 7.1-5.4 14.4-6 22.2-1.8 6-2.3 10.5-1.4 13.7-.6 7.3.2 14.1 4.5 16 1.2.5 2.5.8 3.8.8 10.3 0 22.4-14.9 30.8-25.1 2.5-3.1 4.7-5.8 6-7 22.7-21.1 38-45.4 46.8-74.1 5.3-17.5 8.3-36.5 9-58.6 3.2-3.9 6.3-7.8 9.4-11.7 2.1-2 4.1-4.1 6.2-6.1 10.5-10.3 21.2-20.9 32.5-32.6-4 10.9-5.4 20.3-4.2 27.8 1.1 7 4.5 12.4 10 16.1 6.7 4.5 13.8 2.6 20.3-1.5 7.4-1.8 11.3-6.3 15.7-11.4 1.4-1.6 2.8-3.3 4.5-5 1.6-1.7 3.8-4.1 6.3-7 .7-.6 1.3-1.2 1.9-1.8l1.2-1.1c8.7-8.2 28.7-35.5 38.6-60.7 12.8-5.2 25-15.2 34.4-23.3 2.6-1.5 5-2.9 7.1-4.3-2.4 7.4-4.9 16.6-7.7 27.4-3.4 8.5-6.5 17-8.8 25.6-.5 1.7-.8 3-1.1 4-4.7 10.9-4.8 18.2-4 22.5.5 2.5 2.2 2.7 2.8 2.7 2.3-.1 2.8-1.8 3.6-7.7 1-.7 1.2-2.3 1.5-4.8 0 3.4.3 6.8.9 10.1.4 1.8 1.2 2.5 2 2.7.5 2.6 2.4 2.6 2.9 2.5 2.4-.3 2.2-2.2 2-5.3-.2-1.9-.4-4.5-.3-5.7.1-4.2.7-8.6 1.6-12.7.2-.6.4-1.3.5-2 .5-1.2 1-2.3 1.4-3 8.9-16.7 18.6-30 28.7-39.7 13.2-12.6 33.1-23 47.5-30.6.8-.4 8.8-3.3 15.3-5.7 3.8-1.4 7.6-2.8 10.4-3.8 3.6-1.3 5.1-1.9 5.8-2.4 3-.3 5.1-.9 5.9-2.7.2-.6.6-2.1-.8-3.8-8.1-8.6-42.6 4.9-49.4 7.7zm-162.5 54.3c-.7.9-1.4 1.7-2.2 2.6.7-.9 1.4-1.7 2.2-2.6zm-186.8 107c-4-3.3-3-10.4-1.3-16.6-.1 5.8 1 11.4 3.8 16.6.1.2.2.3.3.5-1.3.1-2.3 0-2.8-.5zm22.9-7.1c-4.2 2.3-8.7 4.4-12.7 5.8-.7.1-1.3.1-1.8 0-.9-.1-1.2-.5-1.5-.9-1.5-2.9-2.4-5.9-2.9-9 .4.3.8.6 1.3.8.1.2.2.3.4.4 3.5 3.9 9.5 2.5 14.3.5 3.3-.4 6.4-1.1 9.4-2.1-2.1 1.5-4.3 3.1-6.5 4.5zm21.2-17.7c-2 1.5-4.1 2.9-6.3 4.1 3.5-2.7 6.9-5.6 10.3-8.7-1.3 1.5-2.6 3.1-4 4.6zm-33.9 157.1c.9.2 4.1-.5 8.7-2.1-4 2.9-6.6 4-8.2 4.2-.3-.6-.5-1.4-.5-2.1zm-.3 13c-.7-.3-1.3-1.9-1.5-4.8 1 1.2 2.3 2 3.8 2.4 2.2.7 4.6.5 7.3-.4-3.6 2.6-7 3.9-9.6 2.8zm23.4-18.5c-7.6 7.4-14.3 11.6-18.3 11.6h-.3c4.8-2 10.9-6.6 18.7-14.1.5-.4.9-.9 1.4-1.3 1.7-.9 3.4-2 5.1-3-2.1 2.2-4.3 4.6-6.6 6.8zm17.5-29.1c-2.6 3.3-10.7 12.8-19.1 21.1-8.5 4.7-15.9 7.2-19.3 8.1-.7-7.4 5.5-23.6 12.1-37.7 3-5.4 5.6-9.5 6.6-11.1 17.1-24.4 36.3-47.7 55-70.2.2-.3.4-.5.7-.8-3.2 19.1-7.5 36.6-14.2 54.4-5.7 12.6-12.8 24.8-21.8 36.2zm17.4-13.3c3.5-7.1 6.5-14.1 9.1-21 9.2-20.2 14.8-41.3 18.7-61.9-2.6 26.2-10.1 56.6-27.8 82.9zm67.4-138.9c1.2-1.7 2.4-3.3 3.6-5 1.5-1.6 2.9-3.2 4.3-4.8 4.7-5.3 9.3-10.9 13.7-16.3l2.7-3.3c-1 2.4-1.9 4.7-2.6 6.9-7.3 7.9-14.6 15.4-21.7 22.5zm25.5 29.6c-4.4-3-7-7.1-7.9-12.8-.3-1.9-.4-3.9-.3-6.1.7 5.1 2.8 10 6.7 14.4 1.6 1.8 3.9 4.4 7 6.1-1.9.1-3.8-.4-5.5-1.6zm15.4-2c-1 .2-2 .3-3.1.4-4 .3-7.1-2.7-10.1-6.1-4.8-5.4-6.2-11.7-5.6-18.4 1.3 4.1 3.6 7.6 7.5 8.9 1.5.5 3.2.9 4.8 1.1l.1.1c.6.5 1.3 1.2 2 1.9 2.4 2.4 5.5 5.5 9.2 5.8 1 .1 2 .1 2.9 0-2.3 2.2-5 4.5-7.7 6.3zm17.5-16.5c-.5.5-1 1-1.5 1.6-3.5 2.3-7.2 3.8-10.7 3.5-1.4-.1-3.1-1.4-4.6-2.9 8.7-1.1 18.3-5.8 28.3-14-3.6 3.9-7.4 7.8-11.5 11.8zm45.6-101.7c.3-.1.7-.1 1.1-.1.3 0 .6 0 .9.1-.9.1-1.8.3-2.7.7h-1.7c.8-.3 1.6-.5 2.4-.7zm-22.9 35.1c-.5-.1-1-.3-1.2-1.1.5.4.9.7 1.5.9l.3.3c-.2 0-.4-.1-.6-.1zm3.3-4.4c-.3-.5-.6-1.1-.8-1.7 3.3.5 6.9.5 11 .1-4.6 1.7-8 2.2-10.2 1.6zm20.8.6c-2.8 1.3-5.6 2.3-8.4 3.1-.8.1-1.6.1-2.4.1 3.4-1.1 7.2-2.8 11.2-4.8-.1.5-.2 1-.4 1.6zm2-10c-8.4 2.6-16.6 3.9-23.1 2.8 5.1-7.4 13.8-15.6 19.7-18.3.5.1 1.1.3 1.3.8 2.1 4.1 2.6 9.2 2.1 14.7zm7.1 5.2c.2-.7.4-1.3.5-2 .9-.5 1.8-1.1 2.7-1.6 2.7-1 5.3-2.1 7.7-3.2-3.5 2.3-7.1 4.7-10.9 6.8zm44.4 3.5c-.6.7-1.1 1.3-1.7 2 .7-1.7 1.5-3.4 2.2-5 1.2-2.7 2.3-5.3 3.4-7.8-1.1 3.5-2.4 7.1-3.9 10.8zm39.5-25.7c1.6-1.2 3.2-2.3 4.8-3.4 2.4-1.3 4.8-2.5 7.3-3.6-4 2.2-8 4.5-12.1 7zm701.2-346c-2-1-3.6.6-5.4 2.5l-.2.2c-.9.9-1.8 1.8-2.8 2.7-3.4 3.3-7 6.7-9.9 10.7-7 9.7-13 19.9-19 30.5-16.9 29.5-32.9 60.4-48.3 90.2-1.1 2-2.1 4.1-3.2 6.1 1.1-3 2-5.6 3-7.7 2.1-5 4.2-10.1 6.3-15.3 10.2-22.1 20.8-44.8 31.3-67 5.9-12.5 11.9-24.8 16.5-34.1 1.6-3.2 4.4-8.4 7.2-13.5 2.3-4.2 4.7-8.6 6.5-11.9 2.6-5 3.9-7.5 1.6-9-2.1-1.4-3.9.7-5 2-23.9 28.3-38.9 68.2-53.3 106.8-3.2 8.5-6.3 16.8-9.4 24.7-1.5 3.3-3 6.6-4.6 9.8-5 10.9-10.1 21.7-15.1 32.6-.2.3-.3.7-.5 1 .6-1.7 1.4-3.7 2.7-7.1 1.9-4.8 4.7-12.1 9.6-24.9 11.3-30 23.5-60 35.3-89.1 4.9-12.2 10-24.7 15-37.2.4-.9 1.3-3.2-1-4.2s-3.2 1.1-4 2.8c-.4 1-1.1 2.3-1.7 3.8-1.4 3.1-3.2 7-4.1 9-1.8 3.7-3.7 7.4-5.6 10.9-2.3 4.4-4.7 8.9-6.8 13.5-14.4 31.1-27.4 65.9-41 109.5-1.2 3.8-2.3 7.6-3.4 11.3-1.8 6.3-3.7 12.9-6 19.2 0-.3.1-.5.1-.7 3.1-17.5 6.9-38.4 11.3-60.4 2.2-6.5 4.2-12.3 5.9-17 1.8-5.1 3.2-9 4-11.7 1.2-3.6 2.4-7.2 3.7-10.6 2.1-5.9 4.3-12 6-18.3.5-1.9 1.4-4.6 2.4-7.5 4.6-13.9 6.2-19.8 3.2-22.1-1-.7-2.6-1.2-5 .5-2.9 2-5.4 6.5-7.7 12.4h-.1c-1.4-.2-2.6.8-2.8 2.2-.7 5.8-1.7 11.4-2.7 17.1-1.1 4.5-2.1 9.2-3 13.8-.3 1.6-.6 2.9-.8 3.7-.5 2.2-1 4.5-1.5 6.7-1.5 6.2-3.1 12.5-4.8 19-3.7 14.2-5.6 20.7-6.7 24.5-1.1 3.8-1.4 4.9-2 8.1-9.8 31.2-15.9 57.2-11.5 66.9.2.5.5.9.7 1.3-.6 4.3-1 7.8-1.3 10.5-.3 2.3-.5 4-.5 5.1-.1 1.4-.3 3.9 2.1 4.2h.5c1.1 0 1.8-.7 2.2-1.4.2.3.5.6.9.8.8.5 2.2.6 3.4-.6 16.7-18.4 29.9-41.9 42.7-64.6 5.6-9.9 10.8-19.2 16.3-28.2 1.5-2.5 3.1-5 4.6-7.5 2.6-4.3 5.4-8.8 8.1-13.2 1.1-1.8 2.4-3.6 3.6-5.3 1.1-1.6 2.2-3.3 3.3-5l.2-.3c2.6-4.1 3.5-5.4 1.6-6.9-.7-.5-2.2-1-3.6.5-14.5 15.7-25.7 34.1-36.5 52-3.5 5.8-7.2 11.8-10.9 17.7-1.9 3.1-4 6.1-6.1 9-2.4 3.5-4.9 7.1-7.2 10.8 0 0 0 .1-.1.1.3-.8.6-1.5.9-2.3 3.8-7.5 7.7-14.7 11.9-22.4 2.5-4.5 5-9.2 7.7-14.2 24.7-46.6 44-79.9 64.4-111.3 2.1-3.2 4.6-6.2 7.3-9.3 5.5-6.4 11.2-13 12.6-21.7.1-1.8-.7-2.8-1.5-3.2zm-37.4 18.9c-4.2 8.6-9.4 19.2-14.6 30.2 4.5-10.5 9.3-20.6 14.6-30.2zm-54.8 44.7c2.5-10.3 5.9-22.3 9.8-27.1-.8 3.9-2.9 10.5-4.3 14.5-1 3-1.9 5.7-2.5 7.8-1.6 5.8-3.6 11.6-5.6 17.2 1-4.2 1.8-8.3 2.6-12.4zm-29.2 150.7c-.1.3-.2.5-.2.8.3-1.8.7-3.8 1.1-6v-.2c.3 0 .6 0 .8-.1-.6 1.8-1.1 3.7-1.7 5.5zm5.7-1.4c.7-2.4 1.5-4.8 2.4-7.1.4-.4.8-.7 1.1-1.1l.2.2c.4.4 1.1.7 1.8.7-1.8 2.5-3.7 5-5.5 7.3zm16.6-26.2c2.2-3.6 4.7-7.2 7.1-10.6 1.2-1.8 2.5-3.6 3.8-5.5-4.8 8.5-9.8 16.9-15.1 25-.3-.1-.5-.1-.8-.1h-.1c1.2-2.3 2.9-5.1 5.1-8.8zm84.2-165.3c-1.8 2.1-3.7 4.2-5.4 6.5 2-3 4-6 6.1-8.9 2.2-3 4.8-5.7 7.6-8.4-2.2 3.7-5.2 7.2-8.3 10.8zm-106.3 231.7c-3.9-2.3-8.7-2.9-13.7-1.6-4 0-8.8 2.1-14 6.3-4.9 4-9.6 9.4-12.6 14.6-7 7.6-10.9 18.9-7.1 29.4.8 2.1 2.6 3.3 4.9 3.3.7.6 1.5 1.1 2.4 1.5.9.4 1.8.7 2.9.8.5 1.1 1.2 2.1 1.9 3.1.8 1 2.4 2.4 5.3 2.4.8 0 1.8-.1 2.9-.4 5.7-1.6 13.6-7.8 20.7-16.3 3.6-4.4 6.6-8.8 8.9-13.2 1-1.3 2-2.5 2.7-3.7 4.7-7.3 3.8-11.8 2.1-14.3-.4-5.2-2.9-9.2-7.3-11.9zm-42.9 33.9c.1-.3.1-.5.2-.8 0 .1.1.1.1.2l-.3.6zm3.8 12c-.2.1-.3.2-.5.3-.4.2-.7.3-1 .5-.6-1.2-.8-2.8-.2-5.1.4-1.4 1-3 1.8-4.5 0 1.4.1 3 .3 4.8-.2 1.3-.4 2.7-.4 4zm30-22.9c-.1.2-.2.3-.3.5v-.2l.3-.3zm-9.1-17.3c-1 .8-2 1.7-2.9 2.7-.3-.1-.5-.2-.8-.2 1.2-1 2.4-1.8 3.7-2.5zm-10.1 22.8c0-.1 0-.1.1-.2.5-.8 1-1.7 1.5-2.5 1.4-1.2 3.7-2.6 5.5-3.5-.5 1.7-1.2 3.4-1.9 5-1.9 1.1-3.9 2.1-5.6 2.9.1-.5.3-1.1.4-1.7zm.6 6.7-.9 1.2c-.1-.2-.1-.5-.2-.8.4-.1.8-.2 1.1-.4zm-1.7 9.7c2.4.1 5.2-1 7.9-2.5.8-.3 1.7-.6 2.5-1.1-3.4 3.3-7.6 5.1-10.4 4.9-.5 0-.9-.1-1.2-.2.3-.4.7-.7 1.2-1.1zm.9 9.7c-1.5.4-2.5.3-2.9-.3-.1-.1-.2-.3-.3-.4 4.5-1.1 9.6-3.6 14.7-6.9-4.2 4-8.4 6.8-11.5 7.6zm9.2-20.6c1.7-2 3.6-4.3 5.5-6.8l.1-.1c.1.6.1 1.1.1 1.7-1.9 1.9-3.9 3.7-5.7 5.2zm6.6-17.8-1.2-1.5c.8-.4 1.7-.8 2.5-1.1-.4.8-.8 1.7-1.3 2.6zm14.9-.3c-.4 3.4-1.8 7.3-4 11.4-2.1 2.6-4.8 5.3-7.8 7.9.3-1.1.6-2.3.8-3.4.1-.1.2-.3.3-.4 3.3-3.6 7.3-8.6 8.5-12.9.8-1.6 1.4-3.3 1.8-5 .2.1.4.2.5.4 0 .6 0 1.3-.1 2z"/>
</svg>
